SplineFontDB: 3.0
FontName: DworcowaPKPClassic
FullName: Dworcowa PKP Classic
FamilyName: Dworcowa PKP Classic
Weight: Bold
Copyright: Copyright (c) 2019, Pawel Adamowicz
UComments: "2019-7-14: Created with FontForge (http://fontforge.org)"
Version: 001.000
DefaultBaseFilename: DworcowaPKPClassic
ItalicAngle: 0
UnderlinePosition: -100
UnderlineWidth: 50
Ascent: 800
Descent: 200
InvalidEm: 0
LayerCount: 2
Layer: 0 0 "Warstwa t+AUIA-a" 1
Layer: 1 0 "Plan pierwszy" 0
XUID: [1021 205 -541451372 16521]
StyleMap: 0x0000
FSType: 0
OS2Version: 0
OS2_WeightWidthSlopeOnly: 0
OS2_UseTypoMetrics: 1
CreationTime: 1563127840
ModificationTime: 1565296237
OS2TypoAscent: 0
OS2TypoAOffset: 1
OS2TypoDescent: 0
OS2TypoDOffset: 1
OS2TypoLinegap: 90
OS2WinAscent: 0
OS2WinAOffset: 1
OS2WinDescent: 0
OS2WinDOffset: 1
HheadAscent: 0
HheadAOffset: 1
HheadDescent: 0
HheadDOffset: 1
OS2Vendor: 'PfEd'
Lookup: 258 0 0 "kern-1" { "kern-1-1" [100,0,2] } ['kern' ('DFLT' <'dflt' > 'latn' <'dflt' > ) ]
MarkAttachClasses: 1
DEI: 91125
KernClass2: 8+ 7 "kern-1-1"
 1 P
 16 T Tcaron uni0162
 45 A Aogonek Aacute Acircumflex Abreve Adieresis
 12 V W Y Yacute
 1 k
 15 r racute rcaron
 12 v w y yacute
 125 b c e m n o p cacute ccedilla ccaron eacute eogonek edieresis ecaron nacute ncaron oacute ocircumflex ohungarumlaut odieresis
 96 m n p r u x z zacute zdotaccent racute nacute ncaron rcaron uring uacute uhungarumlaut udieresis
 12 V W Y Yacute
 45 A Aogonek Aacute Acircumflex Abreve Adieresis
 16 T Tcaron uni0162
 194 a c d e g o q s aogonek sacute scaron scedilla aacute acircumflex abreve adieresis cacute ccedilla ccaron eacute eogonek edieresis ecaron dcaron dcroat oacute ocircumflex ohungarumlaut odieresis
 12 v w y yacute

StartChar: one
Encoding: 49 49 0
Width: 421
VWidth: 0
Flags: W
HStem: 0 21G<186 361> 503 132<20 96.9436> 780 20G<215.5 361>
VStem: 186 175<0 561>
LayerCount: 2
Fore
SplineSet
233 800 m 1
 361 800 l 1
 361 0 l 1
 186 0 l 1
 186 561 l 1
 134 533 78 513 20 503 c 1
 20 635 l 1
 116 646 198 710 233 800 c 1
EndSplineSet
Validated: 1
EndChar

StartChar: two
Encoding: 50 50 1
Width: 641
VWidth: 0
Flags: W
HStem: 0 144<345 594> 670 146<263.803 384.769>
VStem: 54 172<539 635.149> 423 178<476.811 631.367>
LayerCount: 2
Fore
SplineSet
229 539 m 1
 56 539 l 1
 55 548 54 557 54 566 c 0
 54 704 177 816 328 816 c 0
 479 816 601 705 601 568 c 0
 601 476 547 393 487 320 c 2
 345 144 l 1
 594 144 l 1
 594 0 l 1
 20 0 l 1
 379 442 l 2
 407 477 423 521 423 568 c 0
 423 624 380 670 328 670 c 0
 272 670 226 630 226 581 c 0
 226 567 227 553 229 539 c 1
EndSplineSet
Validated: 1
EndChar

StartChar: three
Encoding: 51 51 2
Width: 636
VWidth: 0
Flags: W
HStem: -25 158<234.905 373.729> 351 144<220 366.345> 663 145<249.392 370.005>
VStem: 400 169<523.683 633.768> 419 177<176.018 299.253>
LayerCount: 2
Fore
SplineSet
204 586 m 1xf0
 68 658 l 1
 106 748 208 808 324 808 c 0
 459 808 569 718 569 606 c 0xf0
 569 533 524 466 450 430 c 1
 540 386 596 299 596 205 c 0
 596 78 466 -25 306 -25 c 0
 187 -25 81 58 40 184 c 1
 179 244 l 1
 186 181 241 133 306 133 c 0
 369 133 419 179 419 236 c 0xe8
 419 300 363 351 294 351 c 2
 220 351 l 1
 220 495 l 1
 316 495 l 2
 363 495 400 533 400 579 c 0
 400 626 363 663 316 663 c 0
 267 663 222 633 204 586 c 1xf0
EndSplineSet
Validated: 1
EndChar

StartChar: four
Encoding: 52 52 3
Width: 629
VWidth: 0
Flags: W
HStem: 0 21G<343 518> 196 131<178 343 518 609> 780 20G<373.221 518>
VStem: 343 175<0 196 327 550>
LayerCount: 2
Fore
SplineSet
343 550 m 1
 178 327 l 1
 343 327 l 1
 343 550 l 1
388 800 m 1
 518 800 l 1
 518 327 l 1
 609 327 l 1
 609 196 l 1
 518 196 l 1
 518 0 l 1
 343 0 l 1
 343 196 l 1
 20 196 l 1
 20 302 l 1
 388 800 l 1
EndSplineSet
Validated: 1
EndChar

StartChar: five
Encoding: 53 53 4
Width: 611
VWidth: 0
Flags: W
HStem: -16 150<168.644 336.151> 389 140<218.136 326.464> 640 160<225 507>
VStem: 392.013 178.987<194.136 326.582>
LayerCount: 2
Fore
SplineSet
20 85 m 1
 40 250 l 1
 110 174 188 134 267 134 c 0
 335.403320312 134 392.012695312 189.03515625 392.012695312 257.211914062 c 0
 392.012695312 257.807617188 392.008789062 258.403320312 392 259 c 0
 389 364 302 389 221 389 c 0
 164 389 106 371 50 335 c 1
 107 800 l 1
 507 800 l 1
 507 640 l 1
 225 640 l 1
 208 503 l 1
 243 520 282 529 320 529 c 0
 459 529 571 419 571 283 c 0
 571 118 435 -16 267 -16 c 0
 174 -16 85 21 20 85 c 1
EndSplineSet
Validated: 1
EndChar

StartChar: six
Encoding: 54 54 5
Width: 708
VWidth: 0
Flags: W
HStem: -25 150<282.069 432.962> 388 139<293.33 432.347> 805 20G<321 368.474>
VStem: 40 174<187.64 323.01> 497 171<187.032 324.164>
LayerCount: 2
Fore
SplineSet
181 635 m 0
 237 699 293 762 349 825 c 1
 460 711 l 1
 380 639 312 569 260 484 c 1
 293 511 337 527 382 527 c 0
 540 527 668 406 668 256 c 0
 668 101 528 -25 356 -25 c 0
 181 -25 40 115 40 287 c 0
 40 410 89 531 181 635 c 0
356 125 m 0
 434 125 497 184 497 256 c 0
 497 329 434 388 356 388 c 0
 278 388 214 329 214 256 c 0
 214 184 278 125 356 125 c 0
EndSplineSet
Validated: 1
EndChar

StartChar: seven
Encoding: 55 55 6
Width: 604
VWidth: 0
Flags: W
HStem: 0 21G<101 308> 656 144<5 347>
LayerCount: 2
Fore
SplineSet
291 0 m 1
 101 0 l 1
 131 142 274 532 347 656 c 1
 5 656 l 1
 5 800 l 1
 599 800 l 1
 489 624 325 160 291 0 c 1
EndSplineSet
Validated: 1
EndChar

StartChar: eight
Encoding: 56 56 7
Width: 718
VWidth: 0
Flags: W
HStem: -16 142<277.737 440.263> 365 119<291.507 426.493> 682 134<292.707 425.101>
VStem: 40 171<186.058 307.277> 75 173<524.949 640.801> 469 174<523.989 641.761> 507 171<186.058 307.277>
LayerCount: 2
Fore
SplineSet
643 597 m 0xec
 643 532 606 473 548 433 c 1
 627 396 678 329 678 232 c 0
 678 69 535 -16 359 -16 c 0
 183 -16 40 69 40 232 c 0xf2
 40 329 91 396 170 433 c 1
 112 473 75 532 75 597 c 0
 75 718 202 816 359 816 c 0
 516 816 643 718 643 597 c 0xec
359 682 m 0
 298 682 248 638 248 583 c 0
 248 528 298 484 359 484 c 0
 420 484 469 528 469 583 c 0xec
 469 638 420 682 359 682 c 0
359 365 m 0
 277 365 211 312 211 246 c 0
 211 180 277 126 359 126 c 0
 441 126 507 180 507 246 c 0xf2
 507 312 441 365 359 365 c 0
EndSplineSet
Validated: 1
EndChar

StartChar: nine
Encoding: 57 57 8
Width: 708
VWidth: 0
Flags: W
HStem: 264 139<275.506 414.67> 666 150<274.891 425.775>
VStem: 40 170<466.836 600.587> 494 174<467.99 603.36>
LayerCount: 2
Fore
SplineSet
527 156 m 0
 471 92 415 29 359 -34 c 1
 248 80 l 1
 328 152 395 222 448 307 c 1
 415 280 371 264 326 264 c 0
 168 264 40 385 40 535 c 0
 40 690 180 816 352 816 c 0
 526 816 668 676 668 504 c 0
 668 381 619 260 527 156 c 0
352 666 m 0
 274 666 210 607 210 535 c 0
 210 462 274 403 352 403 c 0
 430 403 494 462 494 535 c 0
 494 607 430 666 352 666 c 0
EndSplineSet
Validated: 1
EndChar

StartChar: period
Encoding: 46 46 9
Width: 272
VWidth: 0
Flags: W
HStem: 0 192<74.9431 197.057>
VStem: 40 192<34.9431 157.057>
LayerCount: 2
Fore
SplineSet
40 96 m 0
 40 149 83 192 136 192 c 0
 189 192 232 149 232 96 c 0
 232 43 189 0 136 0 c 0
 83 0 40 43 40 96 c 0
EndSplineSet
Validated: 1
EndChar

StartChar: at
Encoding: 64 64 10
Width: 933
VWidth: 0
Flags: W
HStem: -22 136<524.905 629.997> 0 21G<80 254 680 853> 347 143<524.905 629.997> 651 174<377.008 556.592>
VStem: 80 174<0 525.482> 310 172<158.028 300.123> 680 173<0 33 158.411 302.396 435 525.482>
LayerCount: 2
Fore
SplineSet
467 825 m 0x7e
 680 825 853 652 853 438 c 2
 853 0 l 1
 680 0 l 1x7e
 680 33 l 1
 641 -2 592 -22 538 -22 c 0xbe
 412 -22 310 92 310 234 c 0
 310 375 412 490 538 490 c 0
 592 490 641 469 680 435 c 1
 680 552 584 651 467 651 c 0
 349 651 254 556 254 438 c 2
 254 0 l 1
 80 0 l 1
 80 438 l 2
 80 652 253 825 467 825 c 0x7e
581 114 m 0xbe
 635 114 680 166 680 230 c 0
 680 295 635 347 581 347 c 0
 526 347 482 295 482 230 c 0
 482 166 526 114 581 114 c 0xbe
EndSplineSet
Validated: 1
EndChar

StartChar: comma
Encoding: 44 44 11
Width: 276
VWidth: 0
Flags: W
HStem: -103 295
VStem: 44 192<35.2408 157.057>
LayerCount: 2
Fore
SplineSet
227 55 m 0
 196 -6 160 -60 128 -103 c 1
 40 -55 l 1
 90 14 l 1
 62 30 44 61 44 96 c 0
 44 149 87 192 140 192 c 0
 193 192 236 149 236 96 c 0
 236 81 233 67 227 55 c 0
EndSplineSet
Validated: 1
EndChar

StartChar: semicolon
Encoding: 59 59 12
Width: 276
VWidth: 0
Flags: W
HStem: 288 192<78.9431 201.057>
VStem: 44 192<35.2408 157.057 322.943 445.057>
LayerCount: 2
Fore
SplineSet
140 288 m 0
 87 288 44 331 44 384 c 0
 44 437 87 480 140 480 c 0
 193 480 236 437 236 384 c 0
 236 331 193 288 140 288 c 0
227 55 m 0
 196 -6 160 -60 128 -103 c 1
 40 -55 l 1
 90 14 l 1
 62 30 44 61 44 96 c 0
 44 149 87 192 140 192 c 0
 193 192 236 149 236 96 c 0
 236 81 233 67 227 55 c 0
EndSplineSet
Validated: 1
EndChar

StartChar: colon
Encoding: 58 58 13
Width: 272
VWidth: 0
Flags: W
HStem: 0 192<74.9431 197.057> 288 192<74.9431 197.057>
VStem: 40 192<34.9431 157.057 322.943 445.057>
LayerCount: 2
Fore
SplineSet
136 0 m 0
 83 0 40 43 40 96 c 0
 40 149 83 192 136 192 c 0
 189 192 232 149 232 96 c 0
 232 43 189 0 136 0 c 0
136 288 m 0
 83 288 40 331 40 384 c 0
 40 437 83 480 136 480 c 0
 189 480 232 437 232 384 c 0
 232 331 189 288 136 288 c 0
EndSplineSet
Validated: 1
EndChar

StartChar: exclam
Encoding: 33 33 14
Width: 312
VWidth: 0
Flags: W
HStem: 0 192<94.9431 217.057> 796 20G<68 244>
VStem: 60 192<34.9431 157.057> 68 176<417.538 816>
LayerCount: 2
Fore
SplineSet
244 816 m 1xd0
 244 480 l 1
 218 248 l 1
 94 248 l 1
 68 480 l 1
 68 816 l 1
 244 816 l 1xd0
156 0 m 0
 103 0 60 43 60 96 c 0
 60 149 103 192 156 192 c 0
 209 192 252 149 252 96 c 0xe0
 252 43 209 0 156 0 c 0
EndSplineSet
Validated: 1
EndChar

StartChar: question
Encoding: 63 63 15
Width: 554
VWidth: 0
Flags: W
HStem: 0 192<170.943 293.057> 710 115<169.358 316.552>
VStem: 136 192<34.9431 157.057> 163 137<245 328.201> 356 158<544.708 669.739>
LayerCount: 2
Fore
SplineSet
232 0 m 0xe8
 179 0 136 43 136 96 c 0
 136 149 179 192 232 192 c 0
 285 192 328 149 328 96 c 0
 328 43 285 0 232 0 c 0xe8
254 710 m 0
 197 710 144 683 112 637 c 1
 5 732 l 1
 68 791 114 825 254 825 c 0
 409 825 514 728 514 609 c 0
 514 549 487 491 439 447 c 2
 358 372 l 1
 324 345 300 298 300 245 c 1
 163 245 l 1xd8
 163 286 164 354 218 417 c 1
 328 536 l 2
 346 556 356 582 356 609 c 0
 356 665 310 710 254 710 c 0
EndSplineSet
Validated: 1
EndChar

StartChar: parenleft
Encoding: 40 40 17
Width: 394
VWidth: 0
Flags: W
HStem: 780 20G<277 374>
VStem: 40 194<155.297 444.726>
LayerCount: 2
Fore
SplineSet
40 300 m 0
 40 531 180 727 374 800 c 1
 374 637 l 1
 290 565 234 441 234 300 c 0
 234 159 290 35 374 -36 c 1
 374 -200 l 1
 180 -127 40 69 40 300 c 0
EndSplineSet
Validated: 1
EndChar

StartChar: parenright
Encoding: 41 41 18
Width: 394
VWidth: 0
Flags: W
HStem: 780 20G<20 117.5>
VStem: 160 194<155.297 444.726>
LayerCount: 2
Fore
SplineSet
20 -200 m 1
 20 -36 l 1
 104 35 160 159 160 300 c 0
 160 441 104 565 20 637 c 1
 20 800 l 1
 215 727 354 531 354 300 c 0
 354 69 215 -127 20 -200 c 1
EndSplineSet
Validated: 1
EndChar

StartChar: dollar
Encoding: 36 36 19
Width: 644
VWidth: 0
Flags: W
HStem: -126 241<247.068 370.961> 680 246<252.085 369.836>
VStem: 53 169<536.104 649.482> 247 125<-126 -17.6849 816.685 926> 427 177<157.98 279.551>
LayerCount: 2
Fore
SplineSet
550 747 m 1
 456 633 l 1
 413 663 362 680 309 680 c 0
 261 680 222 641 222 592 c 0
 222 556 245 524 279 511 c 0
 334 490 390 472 444 449 c 0
 543 409 604 319 604 222 c 0
 604 96 504 -1 372 -21 c 1
 372 -126 l 1
 247 -126 l 1
 247 -20 l 1
 157 -6 76 33 20 100 c 1
 125 227 l 1
 178 155 248 115 320 115 c 0
 379 115 427 161 427 217 c 0
 427 262 398 301 354 315 c 0
 309 329 263 342 219 357 c 0
 119 392 53 483 53 583 c 0
 53 696 136 791 247 818 c 1
 247 926 l 1
 372 926 l 1
 372 820 l 1
 436 810 498 785 550 747 c 1
EndSplineSet
Validated: 1
EndChar

StartChar: percent
Encoding: 37 37 20
Width: 865
VWidth: 0
Flags: W
HStem: -25 87<640.54 704.025> 0 21G<78 295.6> 233 87<640.54 704.025> 480 87<160.54 224.025> 738 87<160.54 224.025> 780 20G<568.425 787>
VStem: 20 122<583.857 720.903> 243 122<583.857 720.903> 500 122<79.0974 216.143> 723 122<79.0974 216.143>
LayerCount: 2
Fore
SplineSet
283 0 m 1x77c0
 78 0 l 1
 581 800 l 1
 787 800 l 1
 283 0 l 1x77c0
192 825 m 0x3bc0
 288 825 365 748 365 652 c 0
 365 557 288 480 192 480 c 0
 97 480 20 557 20 652 c 0
 20 748 97 825 192 825 c 0x3bc0
192 738 m 0
 165 738 142 700 142 652 c 0
 142 605 165 567 192 567 c 0
 220 567 243 605 243 652 c 0
 243 700 220 738 192 738 c 0
672 320 m 0
 768 320 845 243 845 148 c 0
 845 52 768 -25 672 -25 c 0xb3c0
 577 -25 500 52 500 148 c 0
 500 243 577 320 672 320 c 0
672 233 m 0
 645 233 622 195 622 148 c 0
 622 100 645 62 672 62 c 0
 700 62 723 100 723 148 c 0
 723 195 700 233 672 233 c 0
EndSplineSet
Validated: 1
EndChar

StartChar: ampersand
Encoding: 38 38 21
Width: 767
VWidth: 0
Flags: W
HStem: -25 140<258.897 404.488> 680 145<277.094 435.6>
VStem: 40 177<157.261 279.554> 78 169<537.424 649.562>
LayerCount: 2
Fore
SplineSet
256 297 m 1xe0
 232 278 217 249 217 217 c 0
 217 161 265 115 324 115 c 0
 352 115 380 121 406 132 c 1
 256 297 l 1xe0
593 356 m 1
 747 297 l 1
 732 220 690 153 630 101 c 1
 734 -25 l 1
 548 -25 l 1
 512 15 l 1
 456 -12 391 -25 324 -25 c 0
 167 -25 40 80 40 222 c 0xe0
 40 300 79 373 146 420 c 1
 103 463 78 522 78 583 c 0
 78 717 193 825 335 825 c 0
 422 825 506 798 575 747 c 1
 481 633 l 1
 438 663 387 680 335 680 c 0
 286 680 247 641 247 592 c 0xd0
 247 572 255 552 268 537 c 2
 536 213 l 1
 566 250 586 299 593 356 c 1
EndSplineSet
Validated: 1
EndChar

StartChar: quotedbl
Encoding: 34 34 22
Width: 347
VWidth: 0
Flags: W
HStem: 505 320<20 135 212 327>
VStem: 20 115<505 825> 212 115<505 825>
LayerCount: 2
Fore
SplineSet
327 825 m 1
 327 505 l 1
 212 505 l 1
 212 825 l 1
 327 825 l 1
135 825 m 1
 135 505 l 1
 20 505 l 1
 20 825 l 1
 135 825 l 1
EndSplineSet
Validated: 1
EndChar

StartChar: numbersign
Encoding: 35 35 23
Width: 769
VWidth: 0
Flags: W
HStem: 0 21G<49 244 369 564> 160 144<20 81 301 401 621 682> 496 144<87 148 368 468 688 749> 780 20G<205 400 525 720>
LayerCount: 2
Fore
SplineSet
400 800 m 1
 368 640 l 1
 497 640 l 1
 529 800 l 1
 720 800 l 1
 688 640 l 1
 749 640 l 1
 749 496 l 1
 659 496 l 1
 621 304 l 1
 682 304 l 1
 682 160 l 1
 592 160 l 1
 560 0 l 1
 369 0 l 1
 401 160 l 1
 272 160 l 1
 240 0 l 1
 49 0 l 1
 81 160 l 1
 20 160 l 1
 20 304 l 1
 110 304 l 1
 148 496 l 1
 87 496 l 1
 87 640 l 1
 177 640 l 1
 209 800 l 1
 400 800 l 1
430 304 m 1
 468 496 l 1
 339 496 l 1
 301 304 l 1
 430 304 l 1
EndSplineSet
Validated: 1
EndChar

StartChar: quotesingle
Encoding: 39 39 24
Width: 155
VWidth: 0
Flags: W
HStem: 505 320<20 135>
VStem: 20 115<505 825>
LayerCount: 2
Fore
SplineSet
135 825 m 1
 135 505 l 1
 20 505 l 1
 20 825 l 1
 135 825 l 1
EndSplineSet
Validated: 1
EndChar

StartChar: asterisk
Encoding: 42 42 25
Width: 444
VWidth: 0
Flags: W
HStem: 805 20G<164 280>
VStem: 164 116<425 525 725 825>
LayerCount: 2
Fore
SplineSet
280 825 m 1
 280 725 l 1
 366 775 l 1
 424 675 l 1
 337 625 l 1
 424 575 l 1
 366 475 l 1
 280 525 l 1
 280 425 l 1
 164 425 l 1
 164 525 l 1
 78 475 l 1
 20 575 l 1
 107 625 l 1
 20 675 l 1
 78 775 l 1
 164 725 l 1
 164 825 l 1
 280 825 l 1
EndSplineSet
Validated: 1
EndChar

StartChar: plus
Encoding: 43 43 26
Width: 362
VWidth: 0
Flags: W
HStem: 365 115<40 123 238 322>
VStem: 123 115<281 365 480 563>
LayerCount: 2
Fore
SplineSet
40 480 m 1
 123 480 l 1
 123 563 l 1
 238 563 l 1
 238 480 l 1
 322 480 l 1
 322 365 l 1
 238 365 l 1
 238 281 l 1
 123 281 l 1
 123 365 l 1
 40 365 l 1
 40 480 l 1
EndSplineSet
Validated: 1
EndChar

StartChar: hyphen
Encoding: 45 45 27
Width: 362
VWidth: 0
Flags: W
HStem: 365 115<40 322>
VStem: 40 282<365 480>
LayerCount: 2
Fore
SplineSet
40 365 m 1
 40 480 l 1
 322 480 l 1
 322 365 l 1
 40 365 l 1
EndSplineSet
Validated: 1
EndChar

StartChar: slash
Encoding: 47 47 28
Width: 508
VWidth: 0
Flags: W
HStem: 0 21G<20 217.925> 780 20G<290.075 488>
LayerCount: 2
Fore
SplineSet
488 800 m 1
 211 0 l 1
 20 0 l 1
 297 800 l 1
 488 800 l 1
EndSplineSet
Validated: 1
EndChar

StartChar: zero
Encoding: 48 48 29
Width: 724
VWidth: 0
Flags: W
HStem: -16 156<298.294 425.706> 660 156<298.294 425.706>
VStem: 42 177<250.181 549.819> 505 177<250.181 549.819>
LayerCount: 2
Fore
SplineSet
362 -16 m 0
 185 -16 42 129 42 400 c 0
 42 671 185 816 362 816 c 0
 539 816 682 671 682 400 c 0
 682 129 539 -16 362 -16 c 0
505 400 m 0
 505 543 458 660 362 660 c 0
 266 660 219 543 219 400 c 0
 219 257 266 140 362 140 c 0
 458 140 505 257 505 400 c 0
EndSplineSet
Validated: 1
EndChar

StartChar: equal
Encoding: 61 61 30
Width: 400
VWidth: 0
Flags: W
HStem: 250 115<40 360> 480 115<40 360>
VStem: 40 320<250 365 480 595>
LayerCount: 2
Fore
SplineSet
40 595 m 1
 360 595 l 1
 360 480 l 1
 40 480 l 1
 40 595 l 1
40 365 m 1
 360 365 l 1
 360 250 l 1
 40 250 l 1
 40 365 l 1
EndSplineSet
Validated: 1
EndChar

StartChar: less
Encoding: 60 60 31
Width: 400
VWidth: 0
Flags: W
VStem: 40 320<365 372 473 480>
LayerCount: 2
Fore
SplineSet
40 365 m 1
 40 480 l 1
 360 595 l 1
 360 473 l 1
 177 422 l 1
 360 372 l 1
 360 250 l 1
 40 365 l 1
EndSplineSet
Validated: 1
EndChar

StartChar: greater
Encoding: 62 62 32
Width: 400
VWidth: 0
Flags: W
VStem: 40 320<243 250 351 358>
LayerCount: 2
Fore
SplineSet
360 365 m 1
 40 250 l 1
 40 372 l 1
 223 422 l 1
 40 473 l 1
 40 595 l 1
 360 480 l 1
 360 365 l 1
EndSplineSet
Validated: 1
EndChar

StartChar: A
Encoding: 65 65 33
Width: 773
VWidth: 0
Flags: W
HStem: 0 21G<20 217.051 556.051 753> 195 143<312 461> 780 20G<290.075 482.925>
LayerCount: 2
Fore
SplineSet
312 338 m 1
 461 338 l 1
 387 586 l 1
 312 338 l 1
753 0 m 1
 562 0 l 1
 504 195 l 1
 270 195 l 1
 211 0 l 1
 20 0 l 1
 297 800 l 1
 476 800 l 1
 753 0 l 1
EndSplineSet
Validated: 1
EndChar

StartChar: B
Encoding: 66 66 34
Width: 640
VWidth: 0
Flags: W
HStem: 0 150<227.48 410.125> 348 141<227 375.991> 658 142<227 377.435>
VStem: 60 167<152.119 348 489 658> 406 168<518.539 629.817> 439 161<178.378 307.267>
LayerCount: 2
Fore
SplineSet
227 157 m 1xf4
 237 153 262 150 274 150 c 2
 322 150 l 2
 407 150 439 179 439 249 c 0
 439 304 389 348 328 348 c 2
 226 348 l 1
 227 157 l 1xf4
227 658 m 1
 227 489 l 1
 322 489 l 2
 368 489 406 527 406 574 c 0xf8
 406 621 368 658 322 658 c 2
 227 658 l 1
361 800 m 2
 479 800 574 712 574 604 c 0xf8
 574 530 528 462 456 429 c 1
 456 424 l 1
 547 397 600 339 600 224 c 0xf4
 600 100 494 0 362 0 c 2
 60 0 l 1
 60 800 l 1
 361 800 l 2
EndSplineSet
Validated: 1
EndChar

StartChar: C
Encoding: 67 67 35
Width: 777
VWidth: 0
Flags: W
HStem: -25 145<364.583 568.281> 680 145<365.005 568.657>
VStem: 40 173<284.084 515.916>
LayerCount: 2
Fore
SplineSet
747 717 m 1
 645 602 l 1
 601 651 540 680 465 680 c 0
 312 680 213 555 213 400 c 0
 213 245 310 120 465 120 c 0
 539 120 601 149 644 196 c 1
 746 81 l 1
 671 15 573 -25 465 -25 c 0
 230 -25 40 165 40 400 c 0
 40 635 230 825 465 825 c 0
 573 825 672 784 747 717 c 1
EndSplineSet
Validated: 1
EndChar

StartChar: D
Encoding: 68 68 36
Width: 761
VWidth: 0
Flags: W
HStem: 0 136<235.797 384.43> 664 136<235.797 384.43>
VStem: 60 175<137.812 662.188> 539 182<290.867 509.133>
LayerCount: 2
Fore
SplineSet
235 141 m 1
 252 138 269 136 287 136 c 0
 441 136 539 254 539 400 c 0
 539 546 440 664 287 664 c 0
 269 664 252 662 235 659 c 1
 235 141 l 1
312 0 m 2
 60 0 l 1
 60 800 l 1
 312 800 l 2
 538 800 721 621 721 400 c 0
 721 179 538 0 312 0 c 2
EndSplineSet
Validated: 1
EndChar

StartChar: E
Encoding: 69 69 37
Width: 559
VWidth: 0
Flags: W
HStem: 0 144<235 519> 336 144<235 492> 656 144<235 519>
VStem: 60 175<144 336 480 656>
LayerCount: 2
Fore
SplineSet
60 800 m 1
 519 800 l 1
 519 656 l 1
 235 656 l 1
 235 480 l 1
 492 480 l 1
 492 336 l 1
 235 336 l 1
 235 144 l 1
 519 144 l 1
 519 0 l 1
 60 0 l 1
 60 800 l 1
EndSplineSet
Validated: 1
EndChar

StartChar: F
Encoding: 70 70 38
Width: 559
VWidth: 0
Flags: W
HStem: 0 21G<60 235> 320 144<235 492> 656 144<235 519>
VStem: 60 175<0 320 464 656>
LayerCount: 2
Fore
SplineSet
60 800 m 1
 519 800 l 1
 519 656 l 1
 235 656 l 1
 235 464 l 1
 492 464 l 1
 492 320 l 1
 235 320 l 1
 235 0 l 1
 60 0 l 1
 60 800 l 1
EndSplineSet
Validated: 1
EndChar

StartChar: G
Encoding: 71 71 39
Width: 911
VWidth: 0
Flags: W
HStem: -25 145<358.467 557.924> 270 146<461 679> 666 150<358.888 557.101>
VStem: 40 173<277.275 510.941>
LayerCount: 2
Fore
SplineSet
782 655 m 1
 656 559 l 1
 613 624 544 666 457 666 c 0
 309 666 213 544 213 393 c 0
 213 242 307 120 457 120 c 0
 563 120 642 181 679 270 c 1
 461 270 l 1
 461 416 l 1
 870 416 l 1
 870 409 871 402 871 395 c 0
 871 168 687 -25 455 -25 c 0
 226 -25 40 163 40 395 c 0
 40 628 226 816 455 816 c 0
 588 816 706 753 782 655 c 1
EndSplineSet
Validated: 1
EndChar

StartChar: H
Encoding: 72 72 40
Width: 755
VWidth: 0
Flags: W
HStem: 0 21G<60 235 520 695> 336 144<235 520> 780 20G<60 235 520 695>
VStem: 60 175<0 336 480 800> 520 175<0 336 480 800>
LayerCount: 2
Fore
SplineSet
520 0 m 1
 520 336 l 1
 235 336 l 1
 235 0 l 1
 60 0 l 1
 60 800 l 1
 235 800 l 1
 235 480 l 1
 520 480 l 1
 520 800 l 1
 695 800 l 1
 695 0 l 1
 520 0 l 1
EndSplineSet
Validated: 1
EndChar

StartChar: I
Encoding: 73 73 41
Width: 295
VWidth: 0
Flags: W
HStem: 0 21G<60 235> 780 20G<60 235>
VStem: 60 175<0 800>
LayerCount: 2
Fore
SplineSet
60 0 m 1
 60 800 l 1
 235 800 l 1
 235 0 l 1
 60 0 l 1
EndSplineSet
Validated: 1
EndChar

StartChar: J
Encoding: 74 74 42
Width: 546
VWidth: 0
Flags: W
HStem: -16 144<185.927 288.178> 780 20G<311 486>
VStem: 311 175<153.908 800>
LayerCount: 2
Fore
SplineSet
244 -16 m 0
 146 -16 58 43 20 133 c 1
 149 209 l 1
 165 159 201 128 241 128 c 0
 280 128 311 162 311 204 c 2
 311 800 l 1
 486 800 l 1
 486 226 l 2
 486 92 378 -16 244 -16 c 0
EndSplineSet
Validated: 1
EndChar

StartChar: K
Encoding: 75 75 43
Width: 736
VWidth: 0
Flags: W
HStem: 0 21G<60 235 503.45 726> 780 20G<60 235 477.812 701>
VStem: 60 175<0 389 513 800>
LayerCount: 2
Fore
SplineSet
60 800 m 1
 235 800 l 1
 235 513 l 1
 496 800 l 1
 701 800 l 1
 392 460 l 1
 726 0 l 1
 518 0 l 1
 235 389 l 1
 235 0 l 1
 60 0 l 1
 60 800 l 1
EndSplineSet
Validated: 1
EndChar

StartChar: L
Encoding: 76 76 44
Width: 559
VWidth: 0
Flags: W
HStem: 0 144<235 519> 780 20G<60 235>
VStem: 60 175<144 800>
LayerCount: 2
Fore
SplineSet
60 800 m 1
 235 800 l 1
 235 144 l 1
 519 144 l 1
 519 0 l 1
 60 0 l 1
 60 800 l 1
EndSplineSet
Validated: 1
EndChar

StartChar: M
Encoding: 77 77 45
Width: 900
VWidth: 0
Flags: W
HStem: 0 21G<60 235 665 840> 780 20G<60 254.951 645.049 840>
VStem: 60 175<0 497> 665 175<0 497>
LayerCount: 2
Fore
SplineSet
840 800 m 1
 840 0 l 1
 665 0 l 1
 665 497 l 1
 497 160 l 1
 403 160 l 1
 235 497 l 1
 235 0 l 1
 60 0 l 1
 60 800 l 1
 245 800 l 1
 450 388 l 1
 655 800 l 1
 840 800 l 1
EndSplineSet
Validated: 1
EndChar

StartChar: N
Encoding: 78 78 46
Width: 802
VWidth: 0
Flags: W
HStem: 0 21G<60 235 553.773 742> 780 20G<60 248.227 567 742>
VStem: 60 175<0 502> 567 175<298 800>
LayerCount: 2
Fore
SplineSet
567 800 m 1
 742 800 l 1
 742 0 l 1
 567 0 l 1
 235 502 l 1
 235 0 l 1
 60 0 l 1
 60 800 l 1
 235 800 l 1
 567 298 l 1
 567 800 l 1
EndSplineSet
Validated: 1
EndChar

StartChar: O
Encoding: 79 79 47
Width: 930
VWidth: 0
Flags: W
HStem: -25 145<364.583 565.417> 680 145<365.005 564.995>
VStem: 40 173<284.084 515.916> 717 173<284.084 515.916>
LayerCount: 2
Fore
SplineSet
465 825 m 0
 700 825 890 635 890 400 c 0
 890 165 700 -25 465 -25 c 0
 230 -25 40 165 40 400 c 0
 40 635 230 825 465 825 c 0
465 120 m 0
 620 120 717 245 717 400 c 0
 717 555 618 680 465 680 c 0
 312 680 213 555 213 400 c 0
 213 245 310 120 465 120 c 0
EndSplineSet
Validated: 1
EndChar

StartChar: P
Encoding: 80 80 48
Width: 627
VWidth: 0
Flags: W
HStem: 0 21G<60 235> 320 144<235 377.657> 656 144<235 377.657>
VStem: 60 175<0 320 464 656> 418 169<499.406 620.594>
LayerCount: 2
Fore
SplineSet
347 800 m 2
 480 800 587 693 587 560 c 0
 587 427 480 320 347 320 c 2
 235 320 l 1
 235 0 l 1
 60 0 l 1
 60 800 l 1
 347 800 l 2
235 656 m 1
 235 464 l 1
 322 464 l 2
 375 464 418 507 418 560 c 0
 418 613 375 656 322 656 c 2
 235 656 l 1
EndSplineSet
Validated: 1
EndChar

StartChar: Q
Encoding: 81 81 49
Width: 930
VWidth: 0
Flags: W
HStem: -25 145<364.583 568.119> 0 21G<672.077 856> 680 145<365.005 564.995>
VStem: 40 173<284.084 515.916> 717 173<281.071 515.916>
LayerCount: 2
Fore
SplineSet
890 400 m 0xb8
 890 285 844 180 769 103 c 1
 856 0 l 1
 689 0 l 1x78
 667 26 l 1
 607 -6 538 -25 465 -25 c 0
 230 -25 40 165 40 400 c 0
 40 635 230 825 465 825 c 0
 700 825 890 635 890 400 c 0xb8
475 255 m 1
 642 255 l 1
 667 225 l 1
 699 273 717 334 717 400 c 0
 717 555 618 680 465 680 c 0
 312 680 213 555 213 400 c 0
 213 245 310 120 465 120 c 0xb8
 504 120 539 128 570 142 c 1
 475 255 l 1
EndSplineSet
Validated: 1
EndChar

StartChar: R
Encoding: 82 82 50
Width: 681
VWidth: 0
Flags: W
HStem: 0 21G<60 235 457.562 671> 656 144<235 377.657>
VStem: 60 175<0 320 464 656> 418 169<499.181 620.594>
LayerCount: 2
Fore
SplineSet
347 800 m 2
 480 800 587 693 587 560 c 0
 587 457 522 369 430 335 c 1
 671 0 l 1
 472 0 l 1
 241 320 l 1
 235 320 l 1
 235 0 l 1
 60 0 l 1
 60 800 l 1
 347 800 l 2
235 656 m 1
 235 464 l 1
 322 464 l 2
 375 464 418 507 418 560 c 0
 418 613 375 656 322 656 c 2
 235 656 l 1
EndSplineSet
Validated: 1
EndChar

StartChar: S
Encoding: 83 83 51
Width: 644
VWidth: 0
Flags: W
HStem: -25 140<232.199 385.103> 680 145<254.801 410.251>
VStem: 53 169<536.104 649.562> 427 177<157.261 279.551>
LayerCount: 2
Fore
SplineSet
550 747 m 1
 456 633 l 1
 413 663 362 680 309 680 c 0
 261 680 222 641 222 592 c 0
 222 556 245 524 279 511 c 0
 334 490 390 472 444 449 c 0
 543 409 604 319 604 222 c 0
 604 80 477 -25 320 -25 c 0
 202 -25 91 15 20 100 c 1
 125 227 l 1
 178 155 248 115 320 115 c 0
 379 115 427 161 427 217 c 0
 427 262 398 301 354 315 c 0
 309 329 263 342 219 357 c 0
 119 392 53 483 53 583 c 0
 53 717 168 825 309 825 c 0
 396 825 481 798 550 747 c 1
EndSplineSet
Validated: 1
EndChar

StartChar: T
Encoding: 84 84 52
Width: 524
VWidth: 0
Flags: W
HStem: 0 21G<174 350> 656 144<20 174 350 504>
VStem: 174 176<0 656>
LayerCount: 2
Fore
SplineSet
504 800 m 1
 504 656 l 1
 350 656 l 1
 350 0 l 1
 174 0 l 1
 174 656 l 1
 20 656 l 1
 20 800 l 1
 504 800 l 1
EndSplineSet
Validated: 1
EndChar

StartChar: U
Encoding: 85 85 53
Width: 806
VWidth: 0
Flags: W
HStem: -25 149<324.471 481.907> 780 20G<60 235 571 746>
VStem: 60 175<211.825 800> 571 175<211.825 800>
LayerCount: 2
Fore
SplineSet
403 -25 m 0
 214 -25 60 121 60 300 c 2
 60 800 l 1
 235 800 l 1
 235 292 l 2
 235 199 311 124 403 124 c 0
 496 124 571 199 571 292 c 2
 571 800 l 1
 746 800 l 1
 746 300 l 2
 746 121 593 -25 403 -25 c 0
EndSplineSet
Validated: 1
EndChar

StartChar: V
Encoding: 86 86 54
Width: 745
VWidth: 0
Flags: W
HStem: 0 21G<291.05 453.95> 780 20G<20 205.553 539.409 725>
LayerCount: 2
Fore
SplineSet
372 272 m 1
 546 800 l 1
 725 800 l 1
 447 0 l 1
 298 0 l 1
 20 800 l 1
 199 800 l 1
 372 272 l 1
EndSplineSet
Validated: 1
EndChar

StartChar: W
Encoding: 87 87 55
Width: 1051
VWidth: 0
Flags: W
HStem: 0 21G<226.7 404.764 646.274 824.3> 780 20G<20 208.906 431.26 619.74 842.094 1031>
LayerCount: 2
Fore
SplineSet
615 800 m 1
 729 319 l 1
 847 800 l 1
 1031 800 l 1
 819 0 l 1
 651 0 l 1
 526 529 l 1
 400 0 l 1
 232 0 l 1
 20 800 l 1
 204 800 l 1
 322 319 l 1
 436 800 l 1
 615 800 l 1
EndSplineSet
Validated: 1
EndChar

StartChar: X
Encoding: 88 88 56
Width: 753
VWidth: 0
Flags: W
HStem: 0 21G<20 228.075 524.849 733> 780 20G<52 260.075 492.83 701>
LayerCount: 2
Fore
SplineSet
701 800 m 1
 474 427 l 1
 733 0 l 1
 537 0 l 1
 376 265 l 1
 216 0 l 1
 20 0 l 1
 278 427 l 1
 52 800 l 1
 248 800 l 1
 376 588 l 1
 505 800 l 1
 701 800 l 1
EndSplineSet
Validated: 1
EndChar

StartChar: Y
Encoding: 89 89 57
Width: 764
VWidth: 0
Flags: W
HStem: 0 21G<295 470> 780 20G<20 227.28 536.72 744>
VStem: 295 175<0 319>
LayerCount: 2
Fore
SplineSet
470 319 m 1
 470 0 l 1
 295 0 l 1
 295 319 l 1
 20 800 l 1
 217 800 l 1
 382 479 l 1
 547 800 l 1
 744 800 l 1
 470 319 l 1
EndSplineSet
Validated: 1
EndChar

StartChar: Z
Encoding: 90 90 58
Width: 749
VWidth: 0
Flags: W
HStem: 0 144<317 693> 656 144<107 433>
LayerCount: 2
Fore
SplineSet
729 800 m 1
 317 144 l 1
 693 144 l 1
 693 0 l 1
 20 0 l 1
 433 656 l 1
 107 656 l 1
 107 800 l 1
 729 800 l 1
EndSplineSet
Validated: 1
EndChar

StartChar: bracketleft
Encoding: 91 91 59
Width: 437
VWidth: 0
Flags: W
HStem: -199 163<254 417> 637 163<254 417>
VStem: 60 357<-199 -36 637 800> 60 194<-36 637>
LayerCount: 2
Fore
SplineSet
60 800 m 1xe0
 417 800 l 1
 417 637 l 1xe0
 254 637 l 1
 254 -36 l 1xd0
 417 -36 l 1
 417 -199 l 1
 60 -199 l 1
 60 800 l 1xe0
EndSplineSet
Validated: 1
EndChar

StartChar: bracketright
Encoding: 93 93 60
Width: 437
VWidth: 0
Flags: W
HStem: -199 163<20 183> 637 163<20 183>
VStem: 20 357<-199 -36 637 800> 183 194<-36 637>
LayerCount: 2
Fore
SplineSet
377 800 m 1xe0
 377 -199 l 1
 20 -199 l 1
 20 -36 l 1xe0
 183 -36 l 1
 183 637 l 1xd0
 20 637 l 1
 20 800 l 1
 377 800 l 1xe0
EndSplineSet
Validated: 1
EndChar

StartChar: backslash
Encoding: 92 92 61
Width: 508
VWidth: 0
Flags: W
HStem: 0 21G<290.075 488> 780 20G<20 217.925>
LayerCount: 2
Fore
SplineSet
20 800 m 1
 211 800 l 1
 488 0 l 1
 297 0 l 1
 20 800 l 1
EndSplineSet
Validated: 1
EndChar

StartChar: grave
Encoding: 96 96 62
Width: 341
VWidth: 0
Flags: W
HStem: 505 320
VStem: 20 301
LayerCount: 2
Fore
SplineSet
206 505 m 1
 20 825 l 1
 195 825 l 1
 321 505 l 1
 206 505 l 1
EndSplineSet
Validated: 1
EndChar

StartChar: asciicircum
Encoding: 94 94 63
Width: 386
VWidth: 0
Flags: W
HStem: 505 320<20 27 128 135>
LayerCount: 2
Fore
SplineSet
250 825 m 1
 366 505 l 1
 243 505 l 1
 193 688 l 1
 142 505 l 1
 20 505 l 1
 135 825 l 1
 250 825 l 1
EndSplineSet
Validated: 1
EndChar

StartChar: underscore
Encoding: 95 95 64
Width: 501
VWidth: 0
Flags: W
HStem: -115 115<5 496>
LayerCount: 2
Fore
SplineSet
5 0 m 1
 496 0 l 1
 496 -115 l 1
 5 -115 l 1
 5 0 l 1
EndSplineSet
Validated: 1
EndChar

StartChar: a
Encoding: 97 97 65
Width: 623
VWidth: 0
Flags: W
HStem: -22 136<244.792 349.249> 0 21G<399 573> 347 143<244.792 349.249> 460 20G<399 573>
VStem: 30 172<158.028 303.172> 399 174<0 33 158.411 302.396 435 480>
LayerCount: 2
Fore
SplineSet
573 480 m 1x1c
 573 0 l 1
 399 0 l 1x5c
 399 33 l 1
 360 -2 311 -22 258 -22 c 0
 132 -22 30 92 30 234 c 0
 30 375 132 490 258 490 c 0xac
 311 490 360 469 399 435 c 1
 399 480 l 1
 573 480 l 1x1c
300 114 m 0xac
 355 114 399 166 399 230 c 0
 399 295 355 347 300 347 c 0
 246 347 202 295 202 230 c 0
 202 166 246 114 300 114 c 0xac
EndSplineSet
Validated: 1
EndChar

StartChar: b
Encoding: 98 98 66
Width: 622
VWidth: 0
Flags: W
HStem: -22 136<271.611 377.151> 0 21G<50 224> 347 143<273.754 377.151> 780 20G<50 224>
VStem: 50 174<0 32 152.03 308.82 435 800> 421 171<161.055 300.123>
LayerCount: 2
Fore
SplineSet
224 800 m 1x7c
 224 435 l 1
 263 469 311 490 364 490 c 0
 490 490 592 375 592 234 c 0
 592 92 490 -22 364 -22 c 0xbc
 311 -22 263 -2 224 32 c 1
 224 0 l 1
 50 0 l 1
 50 800 l 1
 224 800 l 1x7c
320 114 m 0
 376 114 421 166 421 230 c 0
 421 295 376 347 320 347 c 0
 264 347 219 295 219 230 c 0
 219 166 264 114 320 114 c 0
EndSplineSet
Validated: 1
EndChar

StartChar: c
Encoding: 99 99 67
Width: 539
VWidth: 0
Flags: W
HStem: -22 144<244.229 362.058> 358 144<244.229 362.058>
VStem: 30 167<168.82 311.18>
LayerCount: 2
Fore
SplineSet
30 240 m 0
 30 385 152 502 302 502 c 0
 390 502 469 461 519 398 c 1
 390 304 l 1
 371 336 338 358 302 358 c 0
 244 358 197 305 197 240 c 0
 197 175 244 122 302 122 c 0
 338 122 371 144 390 176 c 1
 519 82 l 1
 469 19 390 -22 302 -22 c 0
 152 -22 30 95 30 240 c 0
EndSplineSet
Validated: 1
EndChar

StartChar: d
Encoding: 100 100 68
Width: 622
VWidth: 0
Flags: W
HStem: -22 136<245.235 350.731> 0 21G<399 572> 347 143<245.235 348.577> 780 20G<399 572>
VStem: 30 172<158.028 300.123> 399 173<0 32 154.113 306.723 435 800>
LayerCount: 2
Fore
SplineSet
572 800 m 1xbc
 572 0 l 1
 399 0 l 1x7c
 399 32 l 1
 360 -2 311 -22 258 -22 c 0
 132 -22 30 92 30 234 c 0
 30 375 132 490 258 490 c 0
 311 490 360 469 399 435 c 1
 399 800 l 1
 572 800 l 1xbc
302 114 m 0xbc
 358 114 403 166 403 230 c 0
 403 295 358 347 302 347 c 0
 247 347 202 295 202 230 c 0
 202 166 247 114 302 114 c 0xbc
EndSplineSet
Validated: 1
EndChar

StartChar: e
Encoding: 101 101 69
Width: 567
VWidth: 0
Flags: W
HStem: -14 119<250.137 412.453> 215 105<203 370> 397 105<238.688 334.213>
LayerCount: 2
Fore
SplineSet
535 215 m 1
 197 215 l 1
 206 173 228 138 256 123 c 0
 281 111 306 105 331 105 c 0
 377 105 422 125 460 163 c 1
 547 64 l 1
 468 13 377 -14 283 -14 c 0
 143 -14 30 101 30 244 c 0
 30 387 125 502 283 502 c 0
 442 502 536 387 536 244 c 0
 536 234 536 225 535 215 c 1
203 320 m 1
 370 320 l 1
 354 367 322 397 287 397 c 0
 250 397 219 366 203 320 c 1
EndSplineSet
Validated: 1
EndChar

StartChar: f
Encoding: 102 102 70
Width: 292
VWidth: 0
Flags: W
HStem: 0 21G<59 233> 365 115<5 59 233 287> 790 20G<159 287>
VStem: 59 174<0 365 480 665.99>
LayerCount: 2
Fore
SplineSet
59 480 m 1
 59 645 l 2
 59 736 121 810 197 810 c 2
 287 810 l 1
 287 667 l 1
 259 667 l 2
 245 667 233 655 233 641 c 2
 233 480 l 1
 287 480 l 1
 287 365 l 1
 233 365 l 1
 233 0 l 1
 59 0 l 1
 59 365 l 1
 5 365 l 1
 5 480 l 1
 59 480 l 1
EndSplineSet
Validated: 1
EndChar

StartChar: g
Encoding: 103 103 71
Width: 606
VWidth: 0
Flags: W
HStem: -235 138<234.808 362.069> -22 141<240.535 335.488> 361 141<240.535 335.488> 460 20G<392 556>
VStem: 30 164<166.695 313.305> 392 164<-67.9563 43 158.573 321.427 437 480>
LayerCount: 2
Fore
SplineSet
248 -22 m 0xdc
 128 -22 30 95 30 240 c 0
 30 385 128 502 248 502 c 0xec
 303 502 354 478 392 437 c 1
 392 480 l 1
 556 480 l 1
 556 -5 l 2
 556 -132 470 -235 299 -235 c 0
 154 -235 65 -158 42 -54 c 1
 216 -54 l 1
 231 -80 262 -97 299 -97 c 0
 351 -97 392 -64 392 -22 c 2
 392 43 l 1
 354 2 303 -22 248 -22 c 0xdc
296 119 m 0
 352 119 398 173 398 240 c 0
 398 307 352 361 296 361 c 0
 239 361 194 307 194 240 c 0
 194 173 239 119 296 119 c 0
EndSplineSet
Validated: 1
EndChar

StartChar: h
Encoding: 104 104 72
Width: 591
VWidth: 0
Flags: W
HStem: 0 21G<50 224 367 541> 340 148<279.894 425> 780 20G<50 224>
VStem: 50 174<0 319.125 433 800> 367 174<0 319.125>
LayerCount: 2
Fore
SplineSet
224 800 m 1
 224 433 l 1
 268 468 323 488 381 488 c 0
 469 488 541 416 541 327 c 2
 541 0 l 1
 367 0 l 1
 367 269 l 2
 367 308 335 340 296 340 c 0
 256 340 224 308 224 269 c 2
 224 0 l 1
 50 0 l 1
 50 800 l 1
 224 800 l 1
EndSplineSet
Validated: 1
EndChar

StartChar: i
Encoding: 105 105 73
Width: 288
VWidth: 0
Flags: W
HStem: 0 21G<57 231> 460 20G<57 231> 546 188<84.1719 203.828>
VStem: 50 188<580.172 699.828> 57 174<0 480>
LayerCount: 2
Fore
SplineSet
144 734 m 0xf0
 196 734 238 692 238 640 c 0
 238 588 196 546 144 546 c 0
 92 546 50 588 50 640 c 0
 50 692 92 734 144 734 c 0xf0
57 480 m 1xe8
 231 480 l 1
 231 0 l 1
 57 0 l 1
 57 480 l 1xe8
EndSplineSet
Validated: 1
EndChar

StartChar: j
Encoding: 106 106 74
Width: 288
VWidth: 0
Flags: W
HStem: 460 20G<57 231> 546 188<84.1719 203.828>
VStem: 50 188<580.172 699.828> 57 174<-235 480>
LayerCount: 2
Fore
SplineSet
144 734 m 0xe0
 196 734 238 692 238 640 c 0
 238 588 196 546 144 546 c 0
 92 546 50 588 50 640 c 0
 50 692 92 734 144 734 c 0xe0
57 480 m 1xd0
 231 480 l 1
 231 -235 l 1
 57 -235 l 1
 57 480 l 1xd0
EndSplineSet
Validated: 1
EndChar

StartChar: k
Encoding: 107 107 75
Width: 597
VWidth: 0
Flags: W
HStem: 0 21G<50 224 352.182 566> 460 20G<372.909 592> 780 20G<50 224>
VStem: 50 174<0 220 304 800>
LayerCount: 2
Fore
SplineSet
50 800 m 1
 224 800 l 1
 224 304 l 1
 392 480 l 1
 592 480 l 1
 390 268 l 1
 566 0 l 1
 365 0 l 1
 224 220 l 1
 224 0 l 1
 50 0 l 1
 50 800 l 1
EndSplineSet
Validated: 1
EndChar

StartChar: l
Encoding: 108 108 76
Width: 274
VWidth: 0
Flags: W
HStem: 0 21G<50 224> 780 20G<50 224>
VStem: 50 174<0 800>
LayerCount: 2
Fore
SplineSet
50 0 m 1
 50 800 l 1
 224 800 l 1
 224 0 l 1
 50 0 l 1
EndSplineSet
Validated: 1
EndChar

StartChar: m
Encoding: 109 109 77
Width: 917
VWidth: 0
Flags: HMW
LayerCount: 2
Fore
SplineSet
525 409 m 1
 561 461 623 495 693 495 c 0
 789 495 867 421 867 329 c 2
 867 0 l 1
 693 0 l 1
 693 268 l 2
 693 308 661 340 621 340 c 0
 577 340 541 296 541 216 c 2
 541 0 l 1
 367 0 l 1
 367 277 l 2
 367 316 335 349 296 349 c 0
 256 349 224 316 224 277 c 2
 224 0 l 1
 50 0 l 1
 50 480 l 1
 224 480 l 1
 224 432 l 1
 256 476 310 502 367 502 c 0
 437 502 497 464 525 409 c 1
EndSplineSet
Validated: 1
EndChar

StartChar: n
Encoding: 110 110 78
Width: 591
VWidth: 0
Flags: W
HStem: 0 21G<50 224 367 541> 349 153<280.606 415> 460 20G<50 224>
VStem: 50 174<0 327.625 432 480> 367 174<0 327.625>
LayerCount: 2
Fore
SplineSet
541 340 m 2xd8
 541 0 l 1
 367 0 l 1
 367 277 l 2
 367 316 335 349 296 349 c 0xd8
 256 349 224 316 224 277 c 2
 224 0 l 1
 50 0 l 1
 50 480 l 1
 224 480 l 1xb8
 224 432 l 1
 256 476 310 502 367 502 c 0
 463 502 541 430 541 340 c 2xd8
EndSplineSet
Validated: 1
EndChar

StartChar: o
Encoding: 111 111 79
Width: 601
VWidth: 0
Flags: W
HStem: -22 144<243.251 358.197> 358 144<243.251 358.197>
VStem: 30 166<168.82 311.18> 405 166<168.82 311.18>
LayerCount: 2
Fore
SplineSet
301 358 m 0
 243 358 196 305 196 240 c 0
 196 175 243 122 301 122 c 0
 358 122 405 175 405 240 c 0
 405 305 358 358 301 358 c 0
301 -22 m 0
 151 -22 30 95 30 240 c 0
 30 385 151 502 301 502 c 0
 450 502 571 385 571 240 c 0
 571 95 450 -22 301 -22 c 0
EndSplineSet
Validated: 1
EndChar

StartChar: p
Encoding: 112 112 80
Width: 622
VWidth: 0
Flags: W
HStem: -211 21G<50 224> -10 143<273.754 377.151> 366 136<261.835 378.461> 460 20G<50 224>
VStem: 50 174<-211 45 171.18 327.97 458 480> 421 171<179.877 318.945>
LayerCount: 2
Fore
SplineSet
50 -211 m 1xec
 50 480 l 1
 224 480 l 1xdc
 224 458 l 1
 239 469 275 502 364 502 c 0
 465 502 592 388 592 246 c 0
 592 105 490 -10 364 -10 c 0
 311 -10 263 11 224 45 c 1
 224 -211 l 1
 50 -211 l 1xec
320 366 m 0xec
 264 366 219 314 219 250 c 0
 219 185 264 133 320 133 c 0
 376 133 421 185 421 250 c 0
 421 314 376 366 320 366 c 0xec
EndSplineSet
Validated: 1
EndChar

StartChar: q
Encoding: 113 113 81
Width: 622
VWidth: 0
Flags: W
HStem: -211 21G<399 572> -10 143<245.235 348.577> 366 136<243.926 360.415> 460 20G<399 572>
VStem: 30 172<179.877 321.972> 399 173<-211 45 173.277 325.887 458 480>
LayerCount: 2
Fore
SplineSet
399 -211 m 5xdc
 399 45 l 5
 360 11 311 -10 258 -10 c 4
 132 -10 30 105 30 246 c 4
 30 388 157 502 258 502 c 4xec
 348 502 383 469 399 458 c 5
 399 480 l 5
 572 480 l 5
 572 -211 l 5
 399 -211 l 5xdc
302 366 m 4
 247 366 202 314 202 250 c 4
 202 185 247 133 302 133 c 4
 358 133 403 185 403 250 c 4
 403 314 358 366 302 366 c 4
EndSplineSet
Validated: 1
EndChar

StartChar: r
Encoding: 114 114 82
Width: 463
VWidth: 0
Flags: W
HStem: 0 21G<50 224> 334 161<274.627 378.922> 460 20G<50 224>
VStem: 50 174<0 313 428 480>
LayerCount: 2
Fore
SplineSet
224 480 m 1xb0
 224 428 l 1
 254 469 302 495 356 495 c 0
 393 495 429 477 458 443 c 1
 364 296 l 1
 345 321 321 334 296 334 c 0xd0
 256 334 224 302 224 262 c 2
 224 0 l 1
 50 0 l 1
 50 480 l 1
 224 480 l 1xb0
EndSplineSet
Validated: 1
EndChar

StartChar: s
Encoding: 115 115 83
Width: 479
VWidth: 0
Flags: W
HStem: -10 125<152.501 311.594> 389 113<174.5 328.717>
VStem: 53 173<326.846 386.084> 262 187<119.309 183.035>
LayerCount: 2
Fore
SplineSet
257 389 m 0
 240 389 226 375 226 358 c 0
 226 345 234 332 246 327 c 0
 283 312 322 301 358 284 c 0
 416 257 449 221 449 149 c 0
 449 61 364 -10 259 -10 c 0
 169 -10 83 20 20 74 c 1
 102 181 l 1
 137 138 181 115 226 115 c 0
 246 115 262 131 262 151 c 0
 262 165 254 179 241 183 c 0
 206 196 177 207 150 220 c 0
 93 246 53 294 53 355 c 0
 53 436 131 502 218 502 c 0
 307 502 360 489 430 443 c 1
 354 350 l 1
 324 376 280 389 257 389 c 0
EndSplineSet
Validated: 1
EndChar

StartChar: t
Encoding: 116 116 84
Width: 292
VWidth: 0
Flags: W
HStem: 0 21G<59 233> 365 115<5 59 233 287>
VStem: 59 174<0 365 480 681>
LayerCount: 2
Fore
SplineSet
59 681 m 1
 233 681 l 1
 233 480 l 1
 287 480 l 1
 287 365 l 1
 233 365 l 1
 233 0 l 1
 59 0 l 1
 59 365 l 1
 5 365 l 1
 5 480 l 1
 59 480 l 1
 59 681 l 1
EndSplineSet
Validated: 1
EndChar

StartChar: u
Encoding: 117 117 85
Width: 580
VWidth: 0
Flags: W
HStem: -22 147<239.707 340.437> 460 20G<50 216 364 530>
VStem: 50 166<146.892 480> 364 166<146.892 480>
LayerCount: 2
Fore
SplineSet
530 196 m 1
 530 76 423 -22 290 -22 c 0
 158 -22 50 76 50 196 c 2
 50 480 l 1
 216 480 l 1
 216 199 l 2
 216 158 249 125 290 125 c 0
 331 125 364 158 364 199 c 2
 364 480 l 1
 530 480 l 1
 530 196 l 1
EndSplineSet
Validated: 1
EndChar

StartChar: v
Encoding: 118 118 86
Width: 561
VWidth: 0
Flags: W
HStem: 0 21G<188.042 372.958> 460 20G<5 198.918 361.082 556>
LayerCount: 2
Fore
SplineSet
556 480 m 1
 365 0 l 1
 196 0 l 1
 5 480 l 1
 193 480 l 1
 280 186 l 1
 367 480 l 1
 556 480 l 1
EndSplineSet
Validated: 1
EndChar

StartChar: w
Encoding: 119 119 87
Width: 824
VWidth: 0
Flags: W
HStem: 0 21G<188.042 350.267 473.733 636.917> 460 20G<5 195.504 339.74 485.179 628.496 819>
LayerCount: 2
Fore
SplineSet
412 217 m 1
 344 0 l 1
 196 0 l 1
 5 480 l 1
 189 480 l 1
 269 234 l 1
 346 480 l 1
 479 480 l 1
 555 234 l 1
 635 480 l 1
 819 480 l 1
 629 0 l 1
 480 0 l 1
 412 217 l 1
EndSplineSet
Validated: 1
EndChar

StartChar: x
Encoding: 120 120 88
Width: 505
VWidth: 0
Flags: W
HStem: 0 21G<5 203.125 302.083 500> 460 20G<5 203.125 302.083 500>
LayerCount: 2
Fore
SplineSet
500 0 m 1
 315 0 l 1
 253 96 l 1
 190 0 l 1
 5 0 l 1
 160 240 l 1
 5 480 l 1
 190 480 l 1
 253 384 l 1
 315 480 l 1
 500 480 l 1
 345 240 l 1
 500 0 l 1
EndSplineSet
Validated: 1
EndChar

StartChar: y
Encoding: 121 121 89
Width: 556
VWidth: 0
Flags: W
HStem: 460 20G<5 200.514 363.361 551>
LayerCount: 2
Fore
SplineSet
178 -28 m 1
 5 480 l 1
 196 480 l 1
 261 192 l 1
 371 480 l 1
 551 480 l 1
 290 -209 l 1
 109 -209 l 1
 178 -28 l 1
EndSplineSet
Validated: 1
EndChar

StartChar: z
Encoding: 122 122 90
Width: 574
VWidth: 0
Flags: W
HStem: 0 133<305 530> 339 141<88 263>
LayerCount: 2
Fore
SplineSet
5 0 m 1
 263 339 l 1
 88 339 l 1
 88 480 l 1
 569 480 l 1
 305 133 l 1
 530 133 l 1
 530 0 l 1
 5 0 l 1
EndSplineSet
Validated: 1
EndChar

StartChar: braceleft
Encoding: 123 123 91
Width: 730
VWidth: 0
Flags: HMW
LayerCount: 2
Fore
SplineSet
710 102 m 1
 710 0 l 1
 170 0 l 1
 170 -99 l 1
 20 45 l 1
 170 201 l 1
 170 102 l 1
 710 102 l 1
EndSplineSet
Validated: 1
EndChar

StartChar: braceright
Encoding: 125 125 92
Width: 730
VWidth: 0
Flags: HMW
LayerCount: 2
Fore
SplineSet
20 102 m 1
 560 102 l 1
 560 201 l 1
 710 45 l 1
 560 -99 l 1
 560 0 l 1
 20 0 l 1
 20 102 l 1
EndSplineSet
Validated: 1
EndChar

StartChar: bar
Encoding: 124 124 93
Width: 294
VWidth: 0
Flags: W
HStem: 780 20G<60 234>
VStem: 60 174<-199 800>
LayerCount: 2
Fore
SplineSet
60 800 m 1
 234 800 l 1
 234 -199 l 1
 60 -199 l 1
 60 800 l 1
EndSplineSet
Validated: 1
EndChar

StartChar: asciitilde
Encoding: 126 126 94
Width: 485
VWidth: 0
Flags: HMW
LayerCount: 2
Fore
SplineSet
445 413 m 1
 426 365 392 335 355 326 c 0
 345.754882812 323.49609375 336.435546875 322.291015625 327.142578125 322.291015625 c 0
 288.184570312 322.291015625 249.680664062 343.474609375 219 379 c 0
 201.83203125 398.620117188 179.318359375 410.888671875 156.920898438 410.888671875 c 0
 151.920898438 410.888671875 146.927734375 410.27734375 142 409 c 0
 128 406 113 395 106 376 c 1
 40 432 l 1
 59 479 93 509 129 519 c 0
 137.981445312 521.245117188 147.069335938 522.3359375 156.15625 522.3359375 c 0
 195.631835938 522.3359375 235.110351562 501.766601562 266 466 c 0
 283.33203125 446.19140625 306.114257812 433.1953125 328.161132812 433.1953125 c 0
 332.826171875 433.1953125 337.458984375 433.77734375 342 435 c 0
 357 439 372 449 379 469 c 1
 445 413 l 1
EndSplineSet
EndChar

StartChar: Aogonek
Encoding: 161 260 95
Width: 773
VWidth: 0
Flags: W
HStem: -93 68<611 696> 0 21G<20 217.02 555.98 753> 196 142<312 461> 780 20G<290.075 482.925>
LayerCount: 2
Fore
SplineSet
753 0 m 1
 562 0 l 1
 503 196 l 1
 270 196 l 1
 211 0 l 1
 20 0 l 1
 297 800 l 1
 476 800 l 1
 753 0 l 1
312 338 m 1
 461 338 l 1
 387 586 l 1
 312 338 l 1
572 -93 m 1
 611 -25 l 1
 735 -25 l 1
 696 -93 l 1
 572 -93 l 1
EndSplineSet
Validated: 1
EndChar

StartChar: aogonek
Encoding: 177 261 96
Width: 623
VWidth: 0
Flags: W
HStem: -180 62.6025<475.5 567.353> -22 136<244.792 349.249> 347 143<244.792 349.249> 460 20G<399 573>
VStem: 30 172<158.028 303.172> 384 102<-108.971 -33.6385> 399 174<0 33 158.411 302.396 435 480>
LayerCount: 2
Fore
SplineSet
573 480 m 1xda
 573 0 l 1xda
 525 0 486 -31 486 -70 c 0
 486 -104.96484375 513.155273438 -117.397460938 541.5546875 -117.397460938 c 0
 550.517578125 -117.397460938 559.603515625 -116.159179688 568 -114 c 1
 568 -171 l 1
 549 -177 516 -180 489 -180 c 0
 462 -180 384 -153 384 -104 c 0xdc
 384 -55 406 -28 437 0 c 1
 399 0 l 1
 399 33 l 1
 360 -2 311 -22 258 -22 c 0
 132 -22 30 92 30 234 c 0
 30 375 132 490 258 490 c 0xea
 311 490 360 469 399 435 c 1
 399 480 l 1
 573 480 l 1xda
300 114 m 0
 355 114 399 166 399 230 c 0
 399 295 355 347 300 347 c 0xea
 246 347 202 295 202 230 c 0
 202 166 246 114 300 114 c 0
EndSplineSet
Validated: 1
EndChar

StartChar: Cacute
Encoding: 198 262 97
Width: 777
VWidth: 0
Flags: W
HStem: -25 145<364.583 568.281> 680 145<365.005 568.657> 858 68<496 571>
VStem: 40 173<284.084 515.916>
LayerCount: 2
Fore
SplineSet
456 858 m 1
 496 926 l 1
 626 926 l 1
 571 858 l 1
 456 858 l 1
747 717 m 1
 645 602 l 1
 601 651 540 680 465 680 c 0
 312 680 213 555 213 400 c 0
 213 245 310 120 465 120 c 0
 539 120 601 149 644 196 c 1
 746 81 l 1
 671 15 573 -25 465 -25 c 0
 230 -25 40 165 40 400 c 0
 40 635 230 825 465 825 c 0
 573 825 672 784 747 717 c 1
EndSplineSet
Validated: 1
EndChar

StartChar: cacute
Encoding: 230 263 98
Width: 539
VWidth: 0
Flags: W
HStem: -22 144<244.229 362.058> 358 144<244.229 362.058>
VStem: 30 167<168.82 311.18>
LayerCount: 2
Fore
SplineSet
30 240 m 0
 30 385 152 502 302 502 c 0
 390 502 469 461 519 398 c 1
 390 304 l 1
 371 336 338 358 302 358 c 0
 244 358 197 305 197 240 c 0
 197 175 244 122 302 122 c 0
 338 122 371 144 390 176 c 1
 519 82 l 1
 469 19 390 -22 302 -22 c 0
 152 -22 30 95 30 240 c 0
327 541 m 1
 231 541 l 1
 302 720 l 1
 431 720 l 1
 327 541 l 1
EndSplineSet
Validated: 1
EndChar

StartChar: Eogonek
Encoding: 202 280 99
Width: 559
VWidth: 0
Flags: W
HStem: -93 68<386 472> 0 144<235 519> 336 144<235 492> 656 144<235 519>
VStem: 60 175<144 336 480 656>
LayerCount: 2
Fore
SplineSet
347 -93 m 1
 386 -25 l 1
 511 -25 l 1
 472 -93 l 1
 347 -93 l 1
519 800 m 1
 519 656 l 1
 235 656 l 1
 235 480 l 1
 492 480 l 1
 492 336 l 1
 235 336 l 1
 235 144 l 1
 519 144 l 1
 519 0 l 1
 60 0 l 1
 60 800 l 1
 519 800 l 1
EndSplineSet
Validated: 1
EndChar

StartChar: eogonek
Encoding: 234 281 100
Width: 567
VWidth: 0
Flags: W
HStem: -180 62.6025<426.5 517.381> -14 119<250.137 369.064> 215 105<203 370> 397 105<238.688 334.213>
VStem: 334 103<-109.587 -27.4138>
LayerCount: 2
Fore
SplineSet
535 215 m 1
 197 215 l 1
 206 173 228 138 256 123 c 0
 281 111 306 105 331 105 c 0
 377 105 422 125 460 163 c 1
 547 64 l 1
 498 33 437 -3 437 -70 c 0
 437 -104.96484375 464.155273438 -117.397460938 492.115234375 -117.397460938 c 0
 500.939453125 -117.397460938 509.84375 -116.159179688 518 -114 c 1
 518 -171 l 1
 500 -177 466 -180 440 -180 c 0
 413 -180 334 -167 334 -104 c 0
 334 -69 348 -35 370 -6 c 1
 342 -12 313 -14 283 -14 c 0
 143 -14 30 101 30 244 c 0
 30 387 125 502 283 502 c 0
 442 502 536 387 536 244 c 0
 536 234 536 225 535 215 c 1
203 320 m 1
 370 320 l 1
 354 367 322 397 287 397 c 0
 250 397 219 366 203 320 c 1
EndSplineSet
Validated: 1
EndChar

StartChar: Lslash
Encoding: 163 321 101
Width: 559
VWidth: 0
Flags: W
HStem: 0 144<235 519> 780 20G<59 235>
VStem: 21 214<250 385> 59 176<144 250 564 800>
LayerCount: 2
Fore
SplineSet
59 800 m 1xd0
 235 800 l 1
 235 564 l 1
 313 630 l 1
 313 462 l 1
 235 397 l 1
 235 144 l 1
 519 144 l 1
 519 0 l 1
 59 0 l 1
 59 250 l 1xd0
 21 218 l 1
 21 385 l 1xe0
 59 417 l 1
 59 800 l 1xd0
EndSplineSet
Validated: 1
EndChar

StartChar: lslash
Encoding: 179 322 102
Width: 280
VWidth: 0
Flags: W
HStem: 0 21G<53 227> 780 20G<53 227>
VStem: 53 174<0 250 376 382 508 800>
LayerCount: 2
Fore
SplineSet
53 800 m 1
 227 800 l 1
 227 508 l 1
 275 545 l 1
 275 419 l 1
 227 382 l 1
 227 0 l 1
 53 0 l 1
 53 250 l 1
 5 213 l 1
 5 340 l 1
 53 376 l 1
 53 800 l 1
EndSplineSet
Validated: 1
EndChar

StartChar: Nacute
Encoding: 209 323 103
Width: 802
VWidth: 0
Flags: W
HStem: 0 21G<60 235 553.773 742> 780 20G<60 248.227 567 742> 800 68<396 471>
VStem: 60 175<0 502> 567 175<298 800>
LayerCount: 2
Fore
SplineSet
567 800 m 1xd8
 742 800 l 1
 742 0 l 1
 567 0 l 1
 235 502 l 1
 235 0 l 1
 60 0 l 1
 60 800 l 1
 235 800 l 1
 567 298 l 1
 567 800 l 1xd8
357 800 m 1xb8
 396 868 l 1
 527 868 l 1
 471 800 l 1
 357 800 l 1xb8
EndSplineSet
Validated: 1
EndChar

StartChar: nacute
Encoding: 241 324 104
Width: 591
VWidth: 0
Flags: W
HStem: 0 21G<50 224 367 541> 349 153<280.606 415> 460 20G<50 224>
VStem: 50 174<0 327.625 432 480> 367 174<0 327.625>
LayerCount: 2
Fore
SplineSet
541 340 m 2xd8
 541 0 l 1
 367 0 l 1
 367 277 l 2
 367 316 335 349 296 349 c 0xd8
 256 349 224 316 224 277 c 2
 224 0 l 1
 50 0 l 1
 50 480 l 1
 224 480 l 1xb8
 224 432 l 1
 256 476 310 502 367 502 c 0
 463 502 541 430 541 340 c 2xd8
367 541 m 1
 271 541 l 1
 342 720 l 1
 471 720 l 1
 367 541 l 1
EndSplineSet
Validated: 1
EndChar

StartChar: Oacute
Encoding: 211 211 105
Width: 930
VWidth: 0
Flags: W
HStem: -25 145<364.583 565.417> 680 145<365.005 564.995> 858 68<496 571>
VStem: 40 173<284.084 515.916> 717 173<284.084 515.916>
LayerCount: 2
Fore
SplineSet
465 825 m 0
 700 825 890 635 890 400 c 0
 890 165 700 -25 465 -25 c 0
 230 -25 40 165 40 400 c 0
 40 635 230 825 465 825 c 0
465 120 m 0
 620 120 717 245 717 400 c 0
 717 555 618 680 465 680 c 0
 312 680 213 555 213 400 c 0
 213 245 310 120 465 120 c 0
456 858 m 1
 496 926 l 1
 626 926 l 1
 571 858 l 1
 456 858 l 1
EndSplineSet
Validated: 1
EndChar

StartChar: oacute
Encoding: 243 243 106
Width: 601
VWidth: 0
Flags: W
HStem: -22 144<243.251 358.197> 358 144<243.251 358.197>
VStem: 30 166<168.82 311.18> 405 166<168.82 311.18>
LayerCount: 2
Fore
SplineSet
326 541 m 1
 230 541 l 1
 301 720 l 1
 430 720 l 1
 326 541 l 1
301 358 m 0
 243 358 196 305 196 240 c 0
 196 175 243 122 301 122 c 0
 358 122 405 175 405 240 c 0
 405 305 358 358 301 358 c 0
301 -22 m 0
 151 -22 30 95 30 240 c 0
 30 385 151 502 301 502 c 0
 450 502 571 385 571 240 c 0
 571 95 450 -22 301 -22 c 0
EndSplineSet
Validated: 1
EndChar

StartChar: Sacute
Encoding: 166 346 107
Width: 644
VWidth: 0
Flags: W
HStem: -25 140<232.199 385.103> 680 145<254.801 410.251> 858 68<331 406>
VStem: 53 169<536.104 649.562> 427 177<157.261 279.551>
LayerCount: 2
Fore
SplineSet
550 747 m 1
 456 633 l 1
 413 663 362 680 309 680 c 0
 261 680 222 641 222 592 c 0
 222 556 245 524 279 511 c 0
 334 490 390 472 444 449 c 0
 543 409 604 319 604 222 c 0
 604 80 477 -25 320 -25 c 0
 202 -25 91 15 20 100 c 1
 125 227 l 1
 178 155 248 115 320 115 c 0
 379 115 427 161 427 217 c 0
 427 262 398 301 354 315 c 0
 309 329 263 342 219 357 c 0
 119 392 53 483 53 583 c 0
 53 717 168 825 309 825 c 0
 396 825 481 798 550 747 c 1
292 858 m 1
 331 926 l 1
 462 926 l 1
 406 858 l 1
 292 858 l 1
EndSplineSet
Validated: 1
EndChar

StartChar: sacute
Encoding: 182 347 108
Width: 479
VWidth: 0
Flags: W
HStem: -10 125<152.501 311.594> 389 113<174.5 328.717>
VStem: 53 173<326.846 386.084> 262 187<119.309 183.035>
LayerCount: 2
Fore
SplineSet
257 389 m 0
 240 389 226 375 226 358 c 0
 226 345 234 332 246 327 c 0
 283 312 322 301 358 284 c 0
 416 257 449 221 449 149 c 0
 449 61 364 -10 259 -10 c 0
 169 -10 83 20 20 74 c 1
 102 181 l 1
 137 138 181 115 226 115 c 0
 246 115 262 131 262 151 c 0
 262 165 254 179 241 183 c 0
 206 196 177 207 150 220 c 0
 93 246 53 294 53 355 c 0
 53 436 131 502 218 502 c 0
 307 502 360 489 430 443 c 1
 354 350 l 1
 324 376 280 389 257 389 c 0
255 541 m 1
 159 541 l 1
 230 720 l 1
 359 720 l 1
 255 541 l 1
EndSplineSet
Validated: 1
EndChar

StartChar: Zacute
Encoding: 172 377 109
Width: 749
VWidth: 0
Flags: W
HStem: 0 144<317 693> 656 144<107 433> 825 68<438 513>
LayerCount: 2
Fore
SplineSet
398 825 m 1
 438 893 l 1
 568 893 l 1
 513 825 l 1
 398 825 l 1
317 144 m 1
 693 144 l 1
 693 0 l 1
 20 0 l 1
 433 656 l 1
 107 656 l 1
 107 800 l 1
 729 800 l 1
 317 144 l 1
EndSplineSet
Validated: 1
EndChar

StartChar: zacute
Encoding: 188 378 110
Width: 574
VWidth: 0
Flags: W
HStem: 0 133<304 530> 339 141<88 263>
LayerCount: 2
Fore
SplineSet
354 541 m 1
 258 541 l 1
 328 720 l 1
 458 720 l 1
 354 541 l 1
263 339 m 1
 88 339 l 1
 88 480 l 1
 569 480 l 1
 304 133 l 1
 530 133 l 1
 530 0 l 1
 5 0 l 1
 263 339 l 1
EndSplineSet
Validated: 1
EndChar

StartChar: Zdotaccent
Encoding: 175 379 111
Width: 749
VWidth: 0
Flags: W
HStem: 0 144<317 693> 656 144<107 433> 825 114<366.306 456.003>
VStem: 354 114<837.848 926.152>
LayerCount: 2
Fore
SplineSet
317 144 m 1
 693 144 l 1
 693 0 l 1
 20 0 l 1
 433 656 l 1
 107 656 l 1
 107 800 l 1
 729 800 l 1
 317 144 l 1
411 939 m 0
 443 939 468 914 468 882 c 0
 468 850 443 825 411 825 c 0
 380 825 354 850 354 882 c 0
 354 914 380 939 411 939 c 0
EndSplineSet
Validated: 1
EndChar

StartChar: zdotaccent
Encoding: 191 380 112
Width: 574
VWidth: 0
Flags: W
HStem: 0 133<304 530> 339 141<88 263> 546 188<255.172 374.828>
VStem: 221 188<580.172 699.828>
LayerCount: 2
Fore
SplineSet
263 339 m 1
 88 339 l 1
 88 480 l 1
 569 480 l 1
 304 133 l 1
 530 133 l 1
 530 0 l 1
 5 0 l 1
 263 339 l 1
315 734 m 0
 367 734 409 692 409 640 c 0
 409 588 367 546 315 546 c 0
 263 546 221 588 221 640 c 0
 221 692 263 734 315 734 c 0
EndSplineSet
Validated: 1
EndChar

StartChar: section
Encoding: 167 167 113
Width: 840
VWidth: 0
Flags: HMW
LayerCount: 2
Fore
SplineSet
420 0 m 1
 20 400 l 1
 420 800 l 1
 820 400 l 1
 420 0 l 1
EndSplineSet
Validated: 1
EndChar

StartChar: currency
Encoding: 164 164 114
Width: 866
VWidth: 0
Flags: HMW
LayerCount: 2
Fore
SplineSet
323 560 m 1
 446 440 l 1
 547 539 l 1
 462 625 l 1
 626 789 l 1
 714 701 l 1
 725 711 l 1
 782 653 l 1
 772 643 l 1
 796 619 l 1
 844 451 l 2
 845 448 846 444 846 441 c 0
 846 422 829 406 809 406 c 0
 806 406 803 406 799 407 c 2
 631 455 l 1
 610 476 l 1
 513 375 l 1
 820 78 l 1
 742 0 l 1
 446 306 l 1
 149 0 l 1
 72 78 l 1
 379 375 l 1
 260 497 l 1
 163 400 l 1
 20 544 l 1
 119 643 l 1
 109 653 l 1
 167 711 l 1
 177 701 l 1
 276 800 l 1
 420 657 l 1
 323 560 l 1
EndSplineSet
Validated: 1
EndChar

StartChar: breve
Encoding: 162 728 115
Width: 320
VWidth: 0
Flags: W
HStem: 859 47<124.521 195.363>
VStem: 20 95<915.109 952> 205 95<915.109 952>
LayerCount: 2
Fore
SplineSet
300 952 m 1
 290 899 231 859 160 859 c 0
 89 859 30 899 20 952 c 1
 115 952 l 1
 120 925 138 906 160 906 c 0
 181 906 200 925 205 952 c 1
 300 952 l 1
EndSplineSet
Validated: 1
EndChar

StartChar: Lcaron
Encoding: 165 317 116
Width: 559
VWidth: 0
Flags: W
HStem: 0 144<236 519> 780 20G<60 236> 858 68<62 112 184 234>
VStem: 60 176<144 800>
LayerCount: 2
Fore
SplineSet
236 800 m 1
 236 144 l 1
 519 144 l 1
 519 0 l 1
 60 0 l 1
 60 800 l 1
 236 800 l 1
148 871 m 1
 184 926 l 1
 289 926 l 1
 234 858 l 1
 62 858 l 1
 7 926 l 1
 112 926 l 1
 148 871 l 1
EndSplineSet
Validated: 1
EndChar

StartChar: dieresis
Encoding: 168 168 117
Width: 352
VWidth: 0
Flags: W
HStem: 858 115<33.1711 121.152 230.255 318.829>
VStem: 20 114<871.255 959.829> 217 115<871.255 959.829>
LayerCount: 2
Fore
SplineSet
275 973 m 0
 306 973 332 947 332 916 c 0
 332 884 306 858 275 858 c 0
 243 858 217 884 217 916 c 0
 217 947 243 973 275 973 c 0
77 973 m 0
 109 973 134 947 134 916 c 0
 134 884 109 858 77 858 c 0
 46 858 20 884 20 916 c 0
 20 947 46 973 77 973 c 0
EndSplineSet
Validated: 1
EndChar

StartChar: Scaron
Encoding: 169 352 118
Width: 644
VWidth: 0
Flags: W
HStem: -25 140<232.199 385.103> 680 145<254.801 410.251> 858 68<226 276 348 398>
VStem: 53 169<536.104 649.562> 427 177<157.261 279.551>
LayerCount: 2
Fore
SplineSet
312 871 m 1
 348 926 l 1
 453 926 l 1
 398 858 l 1
 226 858 l 1
 171 926 l 1
 276 926 l 1
 312 871 l 1
550 747 m 1
 456 633 l 1
 413 663 362 680 309 680 c 0
 261 680 222 641 222 592 c 0
 222 556 245 524 279 511 c 0
 334 490 390 472 444 449 c 0
 543 409 604 319 604 222 c 0
 604 80 477 -25 320 -25 c 0
 202 -25 91 15 20 100 c 1
 125 227 l 1
 178 155 248 115 320 115 c 0
 379 115 427 161 427 217 c 0
 427 262 398 301 354 315 c 0
 309 329 263 342 219 357 c 0
 119 392 53 483 53 583 c 0
 53 717 168 825 309 825 c 0
 396 825 481 798 550 747 c 1
EndSplineSet
Validated: 1
EndChar

StartChar: Scedilla
Encoding: 170 350 119
Width: 644
VWidth: 0
Flags: W
HStem: -196 62.6025<226.648 318.5> 680 145<254.801 410.251>
VStem: 53 169<536.104 649.562> 308 102<-124.971 -50.0362> 427 177<157.477 279.551>
LayerCount: 2
Fore
SplineSet
214 -13 m 0
 137 4 69 41 20 100 c 1
 125 227 l 1
 178 155 248 115 320 115 c 0
 379 115 427 161 427 217 c 0
 427 262 398 301 354 315 c 0
 309 329 263 342 219 357 c 0
 119 392 53 483 53 583 c 0
 53 717 168 825 309 825 c 0
 396 825 481 798 550 747 c 1
 456 633 l 1
 413 663 362 680 309 680 c 0
 261 680 222 641 222 592 c 0
 222 556 245 524 279 511 c 0
 334 490 390 472 444 449 c 0
 543 409 604 319 604 222 c 0
 604 94 500 -5 364 -22 c 1
 391 -48 410 -75 410 -120 c 0
 410 -169 332 -196 305 -196 c 0
 279 -196 245 -193 226 -187 c 1
 226 -130 l 1
 234.396484375 -132.159179688 243.482421875 -133.397460938 252.4453125 -133.397460938 c 0
 280.844726562 -133.397460938 308 -120.96484375 308 -86 c 0
 308 -47 265 -25 214 -13 c 0
EndSplineSet
Validated: 1
EndChar

StartChar: Tcaron
Encoding: 171 356 120
Width: 524
VWidth: 0
Flags: W
HStem: 0 21G<174 350> 656 144<20 174 350 504> 858 68<176 226 298 348>
VStem: 174 176<0 656>
LayerCount: 2
Fore
SplineSet
504 800 m 1
 504 656 l 1
 350 656 l 1
 350 0 l 1
 174 0 l 1
 174 656 l 1
 20 656 l 1
 20 800 l 1
 504 800 l 1
298 926 m 1
 403 926 l 1
 348 858 l 1
 176 858 l 1
 121 926 l 1
 226 926 l 1
 262 871 l 1
 298 926 l 1
EndSplineSet
Validated: 1
EndChar

StartChar: uni00AD
Encoding: 173 173 121
Width: 362
VWidth: 0
Flags: W
HStem: 365 115<40 322>
VStem: 40 282<365 480>
LayerCount: 2
Fore
SplineSet
40 365 m 1
 40 480 l 1
 322 480 l 1
 322 365 l 1
 40 365 l 1
EndSplineSet
Validated: 1
EndChar

StartChar: Zcaron
Encoding: 174 381 122
Width: 749
VWidth: 0
Flags: W
HStem: 0 144<317 693> 656 144<107 433> 825 68<333 382 455 504>
LayerCount: 2
Fore
SplineSet
317 144 m 1
 693 144 l 1
 693 0 l 1
 20 0 l 1
 433 656 l 1
 107 656 l 1
 107 800 l 1
 729 800 l 1
 317 144 l 1
418 837 m 1
 455 893 l 1
 560 893 l 1
 504 825 l 1
 333 825 l 1
 277 893 l 1
 382 893 l 1
 418 837 l 1
EndSplineSet
Validated: 1
EndChar

StartChar: degree
Encoding: 176 176 123
Width: 385
VWidth: 0
Flags: W
HStem: 480 87<160.54 224.025> 738 87<160.54 224.025>
VStem: 20 122<583.857 720.903> 243 122<583.857 720.903>
LayerCount: 2
Fore
SplineSet
192 738 m 0
 165 738 142 700 142 652 c 0
 142 605 165 567 192 567 c 0
 220 567 243 605 243 652 c 0
 243 700 220 738 192 738 c 0
192 825 m 0
 288 825 365 748 365 652 c 0
 365 557 288 480 192 480 c 0
 97 480 20 557 20 652 c 0
 20 748 97 825 192 825 c 0
EndSplineSet
Validated: 1
EndChar

StartChar: ogonek
Encoding: 178 731 124
Width: 229
VWidth: 0
Flags: W
HStem: -180 62.6025<111.5 203.353> -20 20G<57.5 209>
VStem: 20 102<-108.971 -33.6385>
LayerCount: 2
Fore
SplineSet
209 0 m 2
 161 0 122 -31 122 -70 c 0
 122 -104.96484375 149.155273438 -117.397460938 177.5546875 -117.397460938 c 0
 186.517578125 -117.397460938 195.603515625 -116.159179688 204 -114 c 1
 204 -171 l 1
 185 -177 152 -180 125 -180 c 0
 98 -180 20 -153 20 -104 c 0
 20 -55 42 -28 73 0 c 1
 209 0 l 2
EndSplineSet
Validated: 1
EndChar

StartChar: acute
Encoding: 180 180 125
Width: 210
VWidth: 0
Flags: W
HStem: 858 68<59 134>
VStem: 20 170
LayerCount: 2
Fore
SplineSet
20 858 m 1
 59 926 l 1
 190 926 l 1
 134 858 l 1
 20 858 l 1
EndSplineSet
Validated: 1
EndChar

StartChar: lcaron
Encoding: 181 318 126
Width: 274
VWidth: 0
Flags: W
HStem: 0 21G<50 224> 780 20G<50 224> 858 68<51 101 173 223>
VStem: 50 174<0 800>
LayerCount: 2
Fore
SplineSet
50 800 m 1
 224 800 l 1
 224 0 l 1
 50 0 l 1
 50 800 l 1
173 926 m 1
 278 926 l 1
 223 858 l 1
 51 858 l 1
 -4 926 l 1
 101 926 l 1
 137 871 l 1
 173 926 l 1
EndSplineSet
Validated: 1
EndChar

StartChar: caron
Encoding: 183 711 127
Width: 323
VWidth: 0
Flags: W
HStem: 858 68<76 125 198 247>
VStem: 20 283
LayerCount: 2
Fore
SplineSet
161 871 m 1
 198 926 l 1
 303 926 l 1
 247 858 l 1
 76 858 l 1
 20 926 l 1
 125 926 l 1
 161 871 l 1
EndSplineSet
Validated: 1
EndChar

StartChar: cedilla
Encoding: 184 184 128
Width: 229
VWidth: 0
Flags: W
HStem: -180 62.6025<25.6474 117.5> -20 20G<20 171.5>
VStem: 107 102<-108.971 -33.6385>
LayerCount: 2
Fore
SplineSet
20 0 m 2
 156 0 l 1
 187 -28 209 -55 209 -104 c 0
 209 -153 131 -180 104 -180 c 0
 77 -180 44 -177 25 -171 c 1
 25 -114 l 1
 33.396484375 -116.159179688 42.482421875 -117.397460938 51.4453125 -117.397460938 c 0
 79.8447265625 -117.397460938 107 -104.96484375 107 -70 c 0
 107 -31 68 0 20 0 c 2
EndSplineSet
Validated: 1
EndChar

StartChar: scaron
Encoding: 185 353 129
Width: 479
VWidth: 0
Flags: W
HStem: -10 125<152.501 311.594> 389 113<174.5 328.717>
VStem: 53 173<326.846 386.084> 262 187<119.309 183.035>
LayerCount: 2
Fore
SplineSet
257 389 m 0
 240 389 226 375 226 358 c 0
 226 345 234 332 246 327 c 0
 283 312 322 301 358 284 c 0
 416 257 449 221 449 149 c 0
 449 61 364 -10 259 -10 c 0
 169 -10 83 20 20 74 c 1
 102 181 l 1
 137 138 181 115 226 115 c 0
 246 115 262 131 262 151 c 0
 262 165 254 179 241 183 c 0
 206 196 177 207 150 220 c 0
 93 246 53 294 53 355 c 0
 53 436 131 502 218 502 c 0
 307 502 360 489 430 443 c 1
 354 350 l 1
 324 376 280 389 257 389 c 0
305 541 m 1
 164 541 l 1
 60 720 l 1
 190 720 l 1
 235 606 l 1
 280 720 l 1
 409 720 l 1
 305 541 l 1
EndSplineSet
Validated: 1
EndChar

StartChar: scedilla
Encoding: 186 351 130
Width: 479
VWidth: 0
Flags: W
HStem: -180 62.6025<145.647 237.5> 389 113<174.5 328.717>
VStem: 53 173<326.846 386.084> 227 102<-108.971 -33.7703> 262 187<118.754 183.035>
LayerCount: 2
Fore
SplineSet
20 74 m 1xf0
 102 181 l 1
 137 138 181 115 226 115 c 0
 246 115 262 131 262 151 c 0
 262 165 254 179 241 183 c 0
 206 196 177 207 150 220 c 0
 93 246 53 294 53 355 c 0
 53 436 131 502 218 502 c 0
 307 502 360 489 430 443 c 1
 354 350 l 1
 324 376 280 389 257 389 c 0
 240 389 226 375 226 358 c 0
 226 345 234 332 246 327 c 0
 283 312 322 301 358 284 c 0
 416 257 449 221 449 149 c 0xe8
 449 69 378 2 285 -8 c 1
 311 -34 329 -60 329 -104 c 0
 329 -153 251 -180 224 -180 c 0
 197 -180 164 -177 145 -171 c 1
 145 -114 l 1
 153.396484375 -116.159179688 162.482421875 -117.397460938 171.4453125 -117.397460938 c 0
 199.844726562 -117.397460938 227 -104.96484375 227 -70 c 0
 227 -35 211 -13 161 3 c 0
 155 4 149 6 143 8 c 0
 97 22 55 44 20 74 c 1xf0
EndSplineSet
Validated: 1
EndChar

StartChar: tcaron
Encoding: 187 357 131
Width: 292
VWidth: 0
Flags: W
HStem: 0 21G<59 233> 365 115<5 59 233 287>
VStem: 59 174<0 365 480 681>
LayerCount: 2
Fore
SplineSet
59 681 m 1
 233 681 l 1
 233 480 l 1
 287 480 l 1
 287 365 l 1
 233 365 l 1
 233 0 l 1
 59 0 l 1
 59 365 l 1
 5 365 l 1
 5 480 l 1
 59 480 l 1
 59 681 l 1
217 720 m 1
 75 720 l 1
 -28 898 l 1
 101 898 l 1
 146 784 l 1
 191 898 l 1
 320 898 l 1
 217 720 l 1
EndSplineSet
Validated: 1
EndChar

StartChar: hungarumlaut
Encoding: 189 733 132
Width: 398
VWidth: 0
Flags: W
HStem: 858 68<59 134 247 322>
LayerCount: 2
Fore
SplineSet
20 858 m 1
 59 926 l 1
 190 926 l 1
 134 858 l 1
 20 858 l 1
247 926 m 1
 378 926 l 1
 322 858 l 1
 208 858 l 1
 247 926 l 1
EndSplineSet
Validated: 1
EndChar

StartChar: zcaron
Encoding: 190 382 133
Width: 574
VWidth: 0
Flags: W
HStem: 0 133<304 530> 339 141<88 263>
LayerCount: 2
Fore
SplineSet
263 339 m 1
 88 339 l 1
 88 480 l 1
 569 480 l 1
 304 133 l 1
 530 133 l 1
 530 0 l 1
 5 0 l 1
 263 339 l 1
399 541 m 1
 258 541 l 1
 154 720 l 1
 283 720 l 1
 328 606 l 1
 373 720 l 1
 503 720 l 1
 399 541 l 1
EndSplineSet
Validated: 1
EndChar

StartChar: Racute
Encoding: 192 340 134
Width: 681
VWidth: 0
Flags: W
HStem: 0 21G<60 235 457.562 671> 656 144<235 377.657> 825 68<272 347>
VStem: 60 175<0 320 464 656> 418 169<499.181 620.427>
LayerCount: 2
Fore
SplineSet
347 800 m 2
 480 800 587 692 587 560 c 0
 587 457 522 369 430 335 c 1
 671 0 l 1
 472 0 l 1
 241 320 l 1
 235 320 l 1
 235 0 l 1
 60 0 l 1
 60 800 l 1
 347 800 l 2
235 464 m 1
 322 464 l 2
 375 464 418 507 418 560 c 0
 418 613 375 656 322 656 c 2
 235 656 l 1
 235 464 l 1
233 825 m 1
 272 893 l 1
 403 893 l 1
 347 825 l 1
 233 825 l 1
EndSplineSet
Validated: 1
EndChar

StartChar: Aacute
Encoding: 193 193 135
Width: 773
VWidth: 0
Flags: W
HStem: 0 21G<20 217.051 555.949 753> 195 143<312 461> 780 20G<290.075 482.925> 825 68<369 444>
LayerCount: 2
Fore
SplineSet
312 338 m 1
 461 338 l 1
 387 586 l 1
 312 338 l 1
753 0 m 1
 562 0 l 1
 503 195 l 1
 270 195 l 1
 211 0 l 1
 20 0 l 1
 297 800 l 1
 476 800 l 1
 753 0 l 1
329 825 m 1
 369 893 l 1
 499 893 l 1
 444 825 l 1
 329 825 l 1
EndSplineSet
Validated: 1
EndChar

StartChar: Acircumflex
Encoding: 194 194 136
Width: 773
VWidth: 0
Flags: W
HStem: 0 21G<20 217.051 555.949 753> 195 143<312 461> 780 20G<290.075 482.925> 825 68<301 350 423 472>
LayerCount: 2
Fore
SplineSet
312 338 m 1
 461 338 l 1
 387 586 l 1
 312 338 l 1
753 0 m 1
 562 0 l 1
 503 195 l 1
 270 195 l 1
 211 0 l 1
 20 0 l 1
 297 800 l 1
 476 800 l 1
 753 0 l 1
387 880 m 1
 350 825 l 1
 245 825 l 1
 301 893 l 1
 472 893 l 1
 528 825 l 1
 423 825 l 1
 387 880 l 1
EndSplineSet
Validated: 1
EndChar

StartChar: Abreve
Encoding: 195 258 137
Width: 773
VWidth: 0
Flags: W
HStem: 0 21G<20 217.051 555.949 753> 195 143<312 461> 780 20G<290.075 482.925> 825 47<351.694 420.248>
VStem: 247 94<881.953 919> 432 94<881.953 919>
LayerCount: 2
Fore
SplineSet
312 338 m 1
 461 338 l 1
 387 586 l 1
 312 338 l 1
753 0 m 1
 562 0 l 1
 503 195 l 1
 270 195 l 1
 211 0 l 1
 20 0 l 1
 297 800 l 1
 476 800 l 1
 753 0 l 1
526 919 m 1
 516 866 458 825 387 825 c 0
 316 825 257 866 247 919 c 1
 341 919 l 1
 347 892 365 872 387 872 c 0
 408 872 426 892 432 919 c 1
 526 919 l 1
EndSplineSet
Validated: 1
EndChar

StartChar: Adieresis
Encoding: 196 196 138
Width: 773
VWidth: 0
Flags: W
HStem: 0 21G<20 217.051 555.949 753> 195 143<312 461> 780 20G<290.075 482.925> 825 114<242.997 332.694 440.306 530.003>
VStem: 231 114<837.848 926.152> 428 114<837.848 926.152>
LayerCount: 2
Fore
SplineSet
753 0 m 1
 562 0 l 1
 503 195 l 1
 270 195 l 1
 211 0 l 1
 20 0 l 1
 297 800 l 1
 476 800 l 1
 753 0 l 1
312 338 m 1
 461 338 l 1
 387 586 l 1
 312 338 l 1
288 939 m 0
 319 939 345 914 345 882 c 0
 345 850 319 825 288 825 c 0
 256 825 231 850 231 882 c 0
 231 914 256 939 288 939 c 0
485 939 m 0
 517 939 542 914 542 882 c 0
 542 850 517 825 485 825 c 0
 454 825 428 850 428 882 c 0
 428 914 454 939 485 939 c 0
EndSplineSet
Validated: 1
EndChar

StartChar: Lacute
Encoding: 197 313 139
Width: 559
VWidth: 0
Flags: W
HStem: 0 144<235 519> 780 20G<60 235> 858 68<145 220>
VStem: 60 175<144 800>
LayerCount: 2
Fore
SplineSet
106 858 m 1
 145 926 l 1
 276 926 l 1
 220 858 l 1
 106 858 l 1
235 800 m 1
 235 144 l 1
 519 144 l 1
 519 0 l 1
 60 0 l 1
 60 800 l 1
 235 800 l 1
EndSplineSet
Validated: 1
EndChar

StartChar: Ccedilla
Encoding: 199 199 140
Width: 777
VWidth: 0
Flags: W
HStem: -180 62.6025<316.647 408.5> -25 145<471 566.404> 680 145<365.005 568.657>
VStem: 40 173<283.878 515.922> 398 102<-108.971 -34.5558>
LayerCount: 2
Fore
SplineSet
40 400 m 0
 40 608 230 825 465 825 c 0
 573 825 672 784 747 717 c 1
 645 602 l 1
 601 651 540 680 465 680 c 0
 312 680 213 555 213 400 c 0
 213 245 310 120 465 120 c 0
 539 120 601 149 644 196 c 1
 746 81 l 1
 672 16 576 -23 471 -25 c 1
 489 -46 500 -69 500 -104 c 0
 500 -153 422 -180 395 -180 c 0
 368 -180 335 -177 316 -171 c 1
 316 -114 l 1
 324.396484375 -116.159179688 333.482421875 -117.397460938 342.4453125 -117.397460938 c 0
 370.844726562 -117.397460938 398 -104.96484375 398 -70 c 0
 398 -20 350 -11 312 3 c 0
 153 65 40 192 40 400 c 0
EndSplineSet
Validated: 1
EndChar

StartChar: Ccaron
Encoding: 200 268 141
Width: 777
VWidth: 0
Flags: W
HStem: -25 145<364.583 568.281> 680 145<365.005 568.657> 858 68<379 429 501 551>
VStem: 40 173<284.084 515.916>
LayerCount: 2
Fore
SplineSet
747 717 m 1
 645 602 l 1
 601 651 540 680 465 680 c 0
 312 680 213 555 213 400 c 0
 213 245 310 120 465 120 c 0
 539 120 601 149 644 196 c 1
 746 81 l 1
 671 15 573 -25 465 -25 c 0
 230 -25 40 165 40 400 c 0
 40 635 230 825 465 825 c 0
 573 825 672 784 747 717 c 1
465 871 m 1
 501 926 l 1
 606 926 l 1
 551 858 l 1
 379 858 l 1
 324 926 l 1
 429 926 l 1
 465 871 l 1
EndSplineSet
Validated: 1
EndChar

StartChar: Eacute
Encoding: 201 201 142
Width: 559
VWidth: 0
Flags: W
HStem: 0 144<235 519> 336 144<235 492> 656 144<235 519> 858 68<316 392>
VStem: 60 175<144 336 480 656>
LayerCount: 2
Fore
SplineSet
519 800 m 1
 519 656 l 1
 235 656 l 1
 235 480 l 1
 492 480 l 1
 492 336 l 1
 235 336 l 1
 235 144 l 1
 519 144 l 1
 519 0 l 1
 60 0 l 1
 60 800 l 1
 519 800 l 1
277 858 m 1
 316 926 l 1
 447 926 l 1
 392 858 l 1
 277 858 l 1
EndSplineSet
Validated: 1
EndChar

StartChar: Edieresis
Encoding: 203 203 143
Width: 559
VWidth: 0
Flags: W
HStem: 0 144<235 519> 336 144<235 492> 656 144<235 519> 858 115<163.171 251.152 360.848 448.829>
VStem: 60 175<144 336 480 656> 150 114<871.255 959.829> 348 114<871.255 959.829>
LayerCount: 2
Fore
SplineSet
519 800 m 1xfa
 519 656 l 1
 235 656 l 1
 235 480 l 1
 492 480 l 1
 492 336 l 1
 235 336 l 1
 235 144 l 1
 519 144 l 1
 519 0 l 1
 60 0 l 1
 60 800 l 1
 519 800 l 1xfa
405 973 m 0
 436 973 462 947 462 916 c 0
 462 884 436 858 405 858 c 0
 373 858 348 884 348 916 c 0
 348 947 373 973 405 973 c 0
207 973 m 0
 239 973 264 947 264 916 c 0
 264 884 239 858 207 858 c 0
 176 858 150 884 150 916 c 0xf6
 150 947 176 973 207 973 c 0
EndSplineSet
Validated: 1
EndChar

StartChar: Ecaron
Encoding: 204 282 144
Width: 559
VWidth: 0
Flags: W
HStem: 0 144<235 519> 336 144<235 492> 656 144<235 519> 858 68<222 271 344 393>
VStem: 60 175<144 336 480 656>
LayerCount: 2
Fore
SplineSet
519 800 m 1
 519 656 l 1
 235 656 l 1
 235 480 l 1
 492 480 l 1
 492 336 l 1
 235 336 l 1
 235 144 l 1
 519 144 l 1
 519 0 l 1
 60 0 l 1
 60 800 l 1
 519 800 l 1
307 871 m 1
 344 926 l 1
 449 926 l 1
 393 858 l 1
 222 858 l 1
 166 926 l 1
 271 926 l 1
 307 871 l 1
EndSplineSet
Validated: 1
EndChar

StartChar: Iacute
Encoding: 205 205 145
Width: 305
VWidth: 0
Flags: W
HStem: 0 21G<60 235> 780 20G<60 235> 858 68<135 210>
VStem: 60 175<0 800>
LayerCount: 2
Fore
SplineSet
135 926 m 1
 266 926 l 1
 210 858 l 1
 96 858 l 1
 135 926 l 1
60 800 m 1
 235 800 l 1
 235 0 l 1
 60 0 l 1
 60 800 l 1
EndSplineSet
Validated: 1
EndChar

StartChar: Icircumflex
Encoding: 206 206 146
Width: 305
VWidth: 0
Flags: W
HStem: 0 21G<65 240> 780 20G<65 240> 858 68<67 116 189 238>
VStem: 65 175<0 800>
LayerCount: 2
Fore
SplineSet
65 800 m 1
 240 800 l 1
 240 0 l 1
 65 0 l 1
 65 800 l 1
153 914 m 1
 116 858 l 1
 11 858 l 1
 67 926 l 1
 238 926 l 1
 294 858 l 1
 189 858 l 1
 153 914 l 1
EndSplineSet
Validated: 1
EndChar

StartChar: Dcaron
Encoding: 207 270 147
Width: 761
VWidth: 0
Flags: W
HStem: 0 136<235.797 384.43> 664 136<235.797 384.43> 858 68<168 217 290 339>
VStem: 60 175<137.812 662.188> 539 182<290.867 509.133>
LayerCount: 2
Fore
SplineSet
287 136 m 0
 441 136 539 254 539 400 c 0
 539 546 440 664 287 664 c 0
 269 664 252 662 235 659 c 1
 235 141 l 1
 252 138 269 136 287 136 c 0
312 0 m 2
 60 0 l 1
 60 800 l 1
 312 800 l 2
 538 800 721 621 721 400 c 0
 721 179 538 0 312 0 c 2
290 926 m 1
 395 926 l 1
 339 858 l 1
 168 858 l 1
 112 926 l 1
 217 926 l 1
 253 871 l 1
 290 926 l 1
EndSplineSet
Validated: 1
EndChar

StartChar: Dcroat
Encoding: 208 272 148
Width: 794
VWidth: 0
Flags: W
HStem: 0 136<268.797 417.43> 365 115<20 93 268 342> 664 136<268.797 417.43>
VStem: 93 175<137.812 365 480 662.188> 572 182<290.867 509.133>
LayerCount: 2
Fore
SplineSet
345 0 m 2
 93 0 l 1
 93 365 l 1
 20 365 l 1
 20 480 l 1
 93 480 l 1
 93 800 l 1
 345 800 l 2
 571 800 754 621 754 400 c 0
 754 179 571 0 345 0 c 2
342 480 m 1
 342 365 l 1
 268 365 l 1
 268 141 l 1
 285 138 302 136 320 136 c 0
 474 136 572 254 572 400 c 0
 572 546 473 664 320 664 c 0
 302 664 285 662 268 659 c 1
 268 480 l 1
 342 480 l 1
EndSplineSet
Validated: 1
EndChar

StartChar: Ncaron
Encoding: 210 327 149
Width: 802
VWidth: 0
Flags: W
HStem: 0 21G<60 235 553.773 742> 780 20G<60 248.227 567 742> 858 68<315 365 437 487>
VStem: 60 175<0 502> 567 175<298 800>
LayerCount: 2
Fore
SplineSet
567 800 m 1
 742 800 l 1
 742 0 l 1
 567 0 l 1
 235 502 l 1
 235 0 l 1
 60 0 l 1
 60 800 l 1
 235 800 l 1
 567 298 l 1
 567 800 l 1
401 871 m 1
 437 926 l 1
 542 926 l 1
 487 858 l 1
 315 858 l 1
 260 926 l 1
 365 926 l 1
 401 871 l 1
EndSplineSet
Validated: 1
EndChar

StartChar: Ocircumflex
Encoding: 212 212 150
Width: 930
VWidth: 0
Flags: W
HStem: -25 145<364.583 565.417> 680 145<365.005 564.995> 858 68<379 429 501 551>
VStem: 40 173<284.084 515.916> 717 173<284.084 515.916>
LayerCount: 2
Fore
SplineSet
465 120 m 0
 620 120 717 245 717 400 c 0
 717 555 618 680 465 680 c 0
 312 680 213 555 213 400 c 0
 213 245 310 120 465 120 c 0
465 825 m 0
 700 825 890 635 890 400 c 0
 890 165 700 -25 465 -25 c 0
 230 -25 40 165 40 400 c 0
 40 635 230 825 465 825 c 0
465 914 m 1
 429 858 l 1
 324 858 l 1
 379 926 l 1
 551 926 l 1
 606 858 l 1
 501 858 l 1
 465 914 l 1
EndSplineSet
Validated: 1
EndChar

StartChar: Ohungarumlaut
Encoding: 213 336 151
Width: 930
VWidth: 0
Flags: W
HStem: -25 145<364.583 565.417> 680 145<365.005 564.995> 858 68<364 439 552 627>
VStem: 40 173<284.084 515.916> 717 173<284.084 515.916>
LayerCount: 2
Fore
SplineSet
465 120 m 0
 620 120 717 245 717 400 c 0
 717 555 618 680 465 680 c 0
 312 680 213 555 213 400 c 0
 213 245 310 120 465 120 c 0
465 825 m 0
 700 825 890 635 890 400 c 0
 890 165 700 -25 465 -25 c 0
 230 -25 40 165 40 400 c 0
 40 635 230 825 465 825 c 0
325 858 m 1
 364 926 l 1
 495 926 l 1
 439 858 l 1
 325 858 l 1
513 858 m 1
 552 926 l 1
 683 926 l 1
 627 858 l 1
 513 858 l 1
EndSplineSet
Validated: 1
EndChar

StartChar: Odieresis
Encoding: 214 214 152
Width: 930
VWidth: 0
Flags: W
HStem: -25 145<364.583 565.417> 680 145<365.005 564.995> 858 115<322.171 410.152 519.848 607.829>
VStem: 40 173<284.084 515.916> 309 114<871.255 959.829> 507 114<871.255 959.829> 717 173<284.084 515.916>
LayerCount: 2
Fore
SplineSet
465 120 m 0
 620 120 717 245 717 400 c 0
 717 555 618 680 465 680 c 0
 312 680 213 555 213 400 c 0
 213 245 310 120 465 120 c 0
465 825 m 0
 700 825 890 635 890 400 c 0
 890 165 700 -25 465 -25 c 0
 230 -25 40 165 40 400 c 0
 40 635 230 825 465 825 c 0
564 973 m 0
 595 973 621 947 621 916 c 0
 621 884 595 858 564 858 c 0
 532 858 507 884 507 916 c 0
 507 947 532 973 564 973 c 0
366 973 m 0
 398 973 423 947 423 916 c 0
 423 884 398 858 366 858 c 0
 335 858 309 884 309 916 c 0
 309 947 335 973 366 973 c 0
EndSplineSet
Validated: 1
EndChar

StartChar: multiply
Encoding: 215 215 153
Width: 426
VWidth: 0
Flags: W
LayerCount: 2
Fore
SplineSet
121 595 m 1
 213 503 l 1
 304 595 l 1
 386 513 l 1
 294 422 l 1
 386 331 l 1
 304 249 l 1
 213 341 l 1
 121 249 l 1
 40 331 l 1
 131 422 l 1
 40 513 l 1
 121 595 l 1
EndSplineSet
Validated: 1
EndChar

StartChar: Rcaron
Encoding: 216 344 154
Width: 681
VWidth: 0
Flags: W
HStem: 0 21G<60 235 457.562 671> 656 144<235 377.657> 858 68<184 233 306 355>
VStem: 60 175<0 320 464 656> 418 169<499.181 620.427>
LayerCount: 2
Fore
SplineSet
235 464 m 1
 322 464 l 2
 375 464 418 507 418 560 c 0
 418 613 375 656 322 656 c 2
 235 656 l 1
 235 464 l 1
347 800 m 2
 480 800 587 692 587 560 c 0
 587 457 522 369 430 335 c 1
 671 0 l 1
 472 0 l 1
 241 320 l 1
 235 320 l 1
 235 0 l 1
 60 0 l 1
 60 800 l 1
 347 800 l 2
269 871 m 1
 306 926 l 1
 411 926 l 1
 355 858 l 1
 184 858 l 1
 128 926 l 1
 233 926 l 1
 269 871 l 1
EndSplineSet
Validated: 1
EndChar

StartChar: Uring
Encoding: 217 366 155
Width: 806
VWidth: 0
Flags: W
HStem: -25 149<324.471 481.907> 780 20G<60 235 571 746> 800 46<377.173 429.113> 927 46<376.999 429.279>
VStem: 60 175<211.825 800> 317 56<848.416 924.772> 433 56<847.472 924.772> 571 175<211.825 800>
LayerCount: 2
Fore
SplineSet
403 -25 m 0xdf
 214 -25 60 121 60 300 c 2
 60 800 l 1
 235 800 l 1
 235 292 l 2
 235 199 311 124 403 124 c 0
 496 124 571 199 571 292 c 2
 571 800 l 1
 746 800 l 1
 746 300 l 2
 746 121 593 -25 403 -25 c 0xdf
403 973 m 0
 451 973 489 934 489 887 c 0
 489 839 451 800 403 800 c 0xbf
 356 800 317 839 317 887 c 0
 317 934 356 973 403 973 c 0
403 927 m 0
 387 927 373 909 373 887 c 0
 373 864 387 846 403 846 c 0
 420 846 433 864 433 887 c 0
 433 909 420 927 403 927 c 0
EndSplineSet
Validated: 1
EndChar

StartChar: Uacute
Encoding: 218 218 156
Width: 806
VWidth: 0
Flags: W
HStem: -25 149<324.471 481.907> 780 20G<60 235 571 746> 859 67<397 472>
VStem: 60 175<211.825 800> 571 175<211.825 800>
LayerCount: 2
Fore
SplineSet
403 -25 m 0
 214 -25 60 121 60 300 c 2
 60 800 l 1
 235 800 l 1
 235 292 l 2
 235 199 311 124 403 124 c 0
 496 124 571 199 571 292 c 2
 571 800 l 1
 746 800 l 1
 746 300 l 2
 746 121 593 -25 403 -25 c 0
358 859 m 1
 397 926 l 1
 527 926 l 1
 472 859 l 1
 358 859 l 1
EndSplineSet
Validated: 1
EndChar

StartChar: Uhungarumlaut
Encoding: 219 368 157
Width: 806
VWidth: 0
Flags: W
HStem: -25 149<324.471 481.907> 780 20G<60 235 571 746> 859 67<305 380 493 568>
VStem: 60 175<211.825 800> 571 175<211.825 800>
LayerCount: 2
Fore
SplineSet
266 859 m 1
 305 926 l 1
 436 926 l 1
 380 859 l 1
 266 859 l 1
454 859 m 1
 493 926 l 1
 624 926 l 1
 568 859 l 1
 454 859 l 1
403 -25 m 0
 214 -25 60 121 60 300 c 2
 60 800 l 1
 235 800 l 1
 235 292 l 2
 235 199 311 124 403 124 c 0
 496 124 571 199 571 292 c 2
 571 800 l 1
 746 800 l 1
 746 300 l 2
 746 121 593 -25 403 -25 c 0
EndSplineSet
Validated: 1
EndChar

StartChar: Udieresis
Encoding: 220 220 158
Width: 806
VWidth: 0
Flags: W
HStem: -25 149<324.471 481.907> 780 20G<60 235 571 746> 859 114<260.255 348.829 457.848 545.829>
VStem: 60 175<211.825 800> 247 115<871.848 959.829> 445 114<871.848 959.829> 571 175<211.825 800>
LayerCount: 2
Fore
SplineSet
502 973 m 0
 533 973 559 947 559 916 c 0
 559 884 533 859 502 859 c 0
 470 859 445 884 445 916 c 0
 445 947 470 973 502 973 c 0
305 973 m 0
 336 973 362 947 362 916 c 0
 362 884 336 859 305 859 c 0
 273 859 247 884 247 916 c 0
 247 947 273 973 305 973 c 0
403 -25 m 0
 214 -25 60 121 60 300 c 2
 60 800 l 1
 235 800 l 1
 235 292 l 2
 235 199 311 124 403 124 c 0
 496 124 571 199 571 292 c 2
 571 800 l 1
 746 800 l 1
 746 300 l 2
 746 121 593 -25 403 -25 c 0
EndSplineSet
Validated: 1
EndChar

StartChar: Yacute
Encoding: 221 221 159
Width: 764
VWidth: 0
Flags: W
HStem: 0 21G<294 470> 780 20G<20 227.28 536.72 744> 858 68<390 465>
VStem: 294 176<0 319>
LayerCount: 2
Fore
SplineSet
470 0 m 1
 294 0 l 1
 294 319 l 1
 20 800 l 1
 217 800 l 1
 382 479 l 1
 547 800 l 1
 744 800 l 1
 470 319 l 1
 470 0 l 1
351 858 m 1
 390 926 l 1
 520 926 l 1
 465 858 l 1
 351 858 l 1
EndSplineSet
Validated: 1
EndChar

StartChar: uni0162
Encoding: 222 354 160
Width: 524
VWidth: 0
Flags: W
HStem: -180 62.6025<181.647 273.5> 656 144<20 174 350 504>
VStem: 174 176<0 656> 262 103<-109.265 -34.0929>
LayerCount: 2
Fore
SplineSet
504 800 m 1xe0
 504 656 l 1
 350 656 l 1
 350 0 l 1xe0
 312 0 l 1
 343 -28 365 -55 365 -104 c 0
 365 -153 287 -180 260 -180 c 0
 233 -180 200 -177 181 -171 c 1
 181 -114 l 1
 189.396484375 -116.159179688 198.424804688 -117.397460938 207.30078125 -117.397460938 c 0
 235.422851562 -117.397460938 262 -104.96484375 262 -70 c 0xd0
 262 -23 214 0 174 0 c 1
 174 656 l 1
 20 656 l 1
 20 800 l 1
 504 800 l 1xe0
EndSplineSet
Validated: 1
EndChar

StartChar: germandbls
Encoding: 223 223 161
Width: 622
VWidth: 0
Flags: W
HStem: -22.8779 136.878<320 376.77> 0 21G<50 224> 649 151<250.973 340.958>
VStem: 50 174<0 621.713> 367 146<504.304 624.293> 421 171<160.129 311.035>
LayerCount: 2
Fore
SplineSet
282 800 m 0x78
 409 800 513 699 513 573 c 0x78
 513 530 501 489 479 455 c 1
 547 411 592 328 592 234 c 0
 592 103.537109375 494.85546875 -22.8779296875 364.663085938 -22.8779296875 c 0
 350.15625 -22.8779296875 335.239257812 -21.30859375 320 -18 c 1
 320 114 l 1
 376 114 421 166 421 230 c 0xb4
 421 295 376 372 320 372 c 1
 320 485 l 1
 348 497 367 528 367 564 c 0
 367 611 335 649 296 649 c 0
 256 649 224 611 224 564 c 2
 224 0 l 1
 50 0 l 1
 50 583 l 1
 55 704 157 800 282 800 c 0x78
EndSplineSet
Validated: 1
EndChar

StartChar: racute
Encoding: 224 341 162
Width: 463
VWidth: 0
Flags: W
HStem: 0 21G<50 224> 334 161<274.627 378.922> 460 20G<50 224>
VStem: 50 174<0 313 428 480>
LayerCount: 2
Fore
SplineSet
112 541 m 1x90
 182 720 l 1
 311 720 l 1
 208 541 l 1
 112 541 l 1x90
224 480 m 1xb0
 224 428 l 1
 254 469 302 495 356 495 c 0
 393 495 429 477 458 443 c 1
 364 296 l 1
 345 321 321 334 296 334 c 0xd0
 256 334 224 302 224 262 c 2
 224 0 l 1
 50 0 l 1
 50 480 l 1
 224 480 l 1xb0
EndSplineSet
Validated: 1
EndChar

StartChar: aacute
Encoding: 225 225 163
Width: 623
VWidth: 0
Flags: W
HStem: -22 136<244.792 349.249> 0 21G<399 573> 347 143<244.792 349.249> 460 20G<399 573>
VStem: 30 172<158.028 303.172> 399 174<0 33 158.411 302.396 435 480>
LayerCount: 2
Fore
SplineSet
573 480 m 1x1c
 573 0 l 1
 399 0 l 1x5c
 399 33 l 1
 360 -2 311 -22 258 -22 c 0
 132 -22 30 92 30 234 c 0
 30 375 132 490 258 490 c 0xac
 311 490 360 469 399 435 c 1
 399 480 l 1
 573 480 l 1x1c
300 114 m 0xac
 355 114 399 166 399 230 c 0
 399 295 355 347 300 347 c 0
 246 347 202 295 202 230 c 0
 202 166 246 114 300 114 c 0xac
341 541 m 1
 245 541 l 1
 316 720 l 1
 445 720 l 1
 341 541 l 1
EndSplineSet
Validated: 1
EndChar

StartChar: acircumflex
Encoding: 226 226 164
Width: 623
VWidth: 0
Flags: W
HStem: -22 136<244.792 349.249> 0 21G<399 573> 347 143<244.792 349.249> 460 20G<399 573>
VStem: 30 172<158.028 303.172> 399 174<0 33 158.411 302.396 435 480>
LayerCount: 2
Fore
SplineSet
372 720 m 1x0c
 476 541 l 1
 347 541 l 1
 302 655 l 1
 257 541 l 1
 127 541 l 1
 231 720 l 1
 372 720 l 1x0c
300 114 m 0xac
 355 114 399 166 399 230 c 0
 399 295 355 347 300 347 c 0
 246 347 202 295 202 230 c 0
 202 166 246 114 300 114 c 0xac
573 480 m 1x1c
 573 0 l 1
 399 0 l 1x5c
 399 33 l 1
 360 -2 311 -22 258 -22 c 0
 132 -22 30 92 30 234 c 0
 30 375 132 490 258 490 c 0xac
 311 490 360 469 399 435 c 1
 399 480 l 1
 573 480 l 1x1c
EndSplineSet
Validated: 1
EndChar

StartChar: abreve
Encoding: 227 259 165
Width: 623
VWidth: 0
Flags: W
HStem: -22 136<244.792 349.249> 0 21G<399 573> 347 143<244.792 349.249> 460 20G<399 573> 546 97<260.35 343.007>
VStem: 30 172<158.028 303.172> 130 107<666.656 713> 366 107<666.656 713> 399 174<0 33 158.411 302.396 435 480>
LayerCount: 2
Fore
SplineSet
300 114 m 0xac80
 355 114 399 166 399 230 c 0
 399 295 355 347 300 347 c 0
 246 347 202 295 202 230 c 0
 202 166 246 114 300 114 c 0xac80
399 480 m 1x1c80
 573 480 l 1
 573 0 l 1
 399 0 l 1x5c80
 399 33 l 1
 360 -2 311 -22 258 -22 c 0
 132 -22 30 92 30 234 c 0
 30 375 132 490 258 490 c 0xac80
 311 490 360 469 399 435 c 1
 399 480 l 1x1c80
473 713 m 1x0b
 463 619 390 546 302 546 c 0
 213 546 140 619 130 713 c 1
 237 713 l 1
 244 673 270 643 302 643 c 0
 333 643 359 673 366 713 c 1
 473 713 l 1x0b
EndSplineSet
Validated: 1
EndChar

StartChar: adieresis
Encoding: 228 228 166
Width: 623
VWidth: 0
Flags: W
HStem: -22 136<244.792 349.249> 0 21G<399 573> 347 143<244.792 349.249> 460 20G<399 573> 546 188<140.172 259.828 396.994 515.828>
VStem: 30 172<158.028 303.172> 106 188<580.172 699.828> 363 187<580.172 699.828> 399 174<0 33 158.411 302.396 435 480>
LayerCount: 2
Fore
SplineSet
573 480 m 1x1c80
 573 0 l 1
 399 0 l 1x5c80
 399 33 l 1
 360 -2 311 -22 258 -22 c 0
 132 -22 30 92 30 234 c 0
 30 375 132 490 258 490 c 0xac80
 311 490 360 469 399 435 c 1
 399 480 l 1
 573 480 l 1x1c80
300 114 m 0xac80
 355 114 399 166 399 230 c 0
 399 295 355 347 300 347 c 0
 246 347 202 295 202 230 c 0
 202 166 246 114 300 114 c 0xac80
200 734 m 0
 252 734 294 692 294 640 c 0
 294 588 252 546 200 546 c 0
 148 546 106 588 106 640 c 0x0a
 106 692 148 734 200 734 c 0
456 734 m 0
 508 734 550 692 550 640 c 0
 550 588 508 546 456 546 c 0
 405 546 363 588 363 640 c 0x09
 363 692 405 734 456 734 c 0
EndSplineSet
Validated: 1
EndChar

StartChar: lacute
Encoding: 229 314 167
Width: 274
VWidth: 0
Flags: W
HStem: 0 21G<50 224> 780 20G<50 224> 858 68<124 199>
VStem: 50 174<0 800>
LayerCount: 2
Fore
SplineSet
85 858 m 1
 124 926 l 1
 255 926 l 1
 199 858 l 1
 85 858 l 1
50 800 m 1
 224 800 l 1
 224 0 l 1
 50 0 l 1
 50 800 l 1
EndSplineSet
Validated: 1
EndChar

StartChar: ccedilla
Encoding: 231 231 168
Width: 539
VWidth: 0
Flags: W
HStem: -180 62.6025<185.647 277> 358 144<244.229 362.058>
VStem: 30 167<170.891 311.18> 266 103<-109.265 -33.9172>
LayerCount: 2
Fore
SplineSet
30 240 m 0
 30 385 152 502 302 502 c 0
 390 502 469 461 519 398 c 1
 390 304 l 1
 371 336 338 358 302 358 c 0
 244 358 197 305 197 240 c 0
 197 175 244 122 302 122 c 0
 338 122 371 144 390 176 c 1
 519 82 l 1
 476 27 410 -11 336 -20 c 1
 356 -42 369 -67 369 -104 c 0
 369 -153 290 -180 264 -180 c 0
 237 -180 204 -177 185 -171 c 1
 185 -114 l 1
 193.396484375 -116.159179688 202.424804688 -117.397460938 211.30078125 -117.397460938 c 0
 239.422851562 -117.397460938 266 -104.96484375 266 -70 c 0
 266 -38 248 -24 192 0 c 0
 96 41 30 133 30 240 c 0
EndSplineSet
Validated: 1
EndChar

StartChar: ccaron
Encoding: 232 269 169
Width: 539
VWidth: 0
Flags: W
HStem: -22 144<244.229 362.058> 358 144<244.229 362.058>
VStem: 30 167<168.82 311.18>
LayerCount: 2
Fore
SplineSet
30 240 m 0
 30 385 152 502 302 502 c 0
 390 502 469 461 519 398 c 1
 390 304 l 1
 371 336 338 358 302 358 c 0
 244 358 197 305 197 240 c 0
 197 175 244 122 302 122 c 0
 338 122 371 144 390 176 c 1
 519 82 l 1
 469 19 390 -22 302 -22 c 0
 152 -22 30 95 30 240 c 0
231 546 m 1
 127 725 l 1
 257 725 l 1
 302 611 l 1
 347 725 l 1
 476 725 l 1
 372 546 l 1
 231 546 l 1
EndSplineSet
Validated: 1
EndChar

StartChar: eacute
Encoding: 233 233 170
Width: 567
VWidth: 0
Flags: W
HStem: -14 119<250.137 412.453> 215 105<203 370> 397 105<238.688 334.213>
LayerCount: 2
Fore
SplineSet
535 215 m 1
 197 215 l 1
 206 173 228 138 256 123 c 0
 281 111 306 105 331 105 c 0
 377 105 422 125 460 163 c 1
 547 64 l 1
 468 13 377 -14 283 -14 c 0
 143 -14 30 101 30 244 c 0
 30 387 125 502 283 502 c 0
 442 502 536 387 536 244 c 0
 536 234 536 225 535 215 c 1
203 320 m 1
 370 320 l 1
 354 367 322 397 287 397 c 0
 250 397 219 366 203 320 c 1
357 541 m 1
 261 541 l 1
 332 720 l 1
 461 720 l 1
 357 541 l 1
EndSplineSet
Validated: 1
EndChar

StartChar: edieresis
Encoding: 235 235 171
Width: 567
VWidth: 0
Flags: W
HStem: -14 119<250.137 412.453> 215 105<203 370> 397 105<238.688 334.213> 541 188<95.1719 214.828 351.994 470.828>
VStem: 61 188<575.172 694.828> 318 187<575.172 694.828>
LayerCount: 2
Fore
SplineSet
203 320 m 1
 370 320 l 1
 354 367 322 397 287 397 c 0
 250 397 219 366 203 320 c 1
535 215 m 1
 197 215 l 1
 206 173 228 138 256 123 c 0
 281 111 306 105 331 105 c 0
 377 105 422 125 460 163 c 1
 547 64 l 1
 468 13 377 -14 283 -14 c 0
 143 -14 30 101 30 244 c 0
 30 387 125 502 283 502 c 0
 442 502 536 387 536 244 c 0
 536 234 536 225 535 215 c 1
411 729 m 0
 463 729 505 687 505 635 c 0
 505 583 463 541 411 541 c 0
 360 541 318 583 318 635 c 0
 318 687 360 729 411 729 c 0
155 729 m 0
 207 729 249 687 249 635 c 0
 249 583 207 541 155 541 c 0
 103 541 61 583 61 635 c 0
 61 687 103 729 155 729 c 0
EndSplineSet
Validated: 1
EndChar

StartChar: ecaron
Encoding: 236 283 172
Width: 567
VWidth: 0
Flags: W
HStem: -14 119<250.137 412.453> 215 105<203 370> 397 105<238.688 334.213>
LayerCount: 2
Fore
SplineSet
535 215 m 1
 197 215 l 1
 206 173 228 138 256 123 c 0
 281 111 306 105 331 105 c 0
 377 105 422 125 460 163 c 1
 547 64 l 1
 468 13 377 -14 283 -14 c 0
 143 -14 30 101 30 244 c 0
 30 387 125 502 283 502 c 0
 442 502 536 387 536 244 c 0
 536 234 536 225 535 215 c 1
203 320 m 1
 370 320 l 1
 354 367 322 397 287 397 c 0
 250 397 219 366 203 320 c 1
213 541 m 1
 109 720 l 1
 238 720 l 1
 283 606 l 1
 328 720 l 1
 458 720 l 1
 354 541 l 1
 213 541 l 1
EndSplineSet
Validated: 1
EndChar

StartChar: iacute
Encoding: 237 237 173
Width: 288
VWidth: 0
Flags: W
HStem: 0 21G<50 224> 460 20G<50 224>
VStem: 50 174<0 480>
LayerCount: 2
Fore
SplineSet
50 480 m 1
 224 480 l 1
 224 0 l 1
 50 0 l 1
 50 480 l 1
89 541 m 1
 159 720 l 1
 289 720 l 1
 185 541 l 1
 89 541 l 1
EndSplineSet
Validated: 1
EndChar

StartChar: icircumflex
Encoding: 238 238 174
Width: 288
VWidth: 0
Flags: W
HStem: 0 21G<57 231> 460 20G<57 231>
VStem: 57 174<0 480>
LayerCount: 2
Fore
SplineSet
57 480 m 1
 231 480 l 1
 231 0 l 1
 57 0 l 1
 57 480 l 1
215 720 m 1
 318 541 l 1
 189 541 l 1
 144 655 l 1
 99 541 l 1
 -30 541 l 1
 73 720 l 1
 215 720 l 1
EndSplineSet
Validated: 1
EndChar

StartChar: dcaron
Encoding: 239 271 175
Width: 622
VWidth: 0
Flags: W
HStem: -22 136<245.235 350.731> 0 21G<399 572> 347 143<245.235 348.577> 780 20G<399 572> 858 68<400 449 522 571>
VStem: 30 172<158.028 300.123> 399 173<0 32 154.113 306.723 435 800>
LayerCount: 2
Fore
SplineSet
485 871 m 1x3e
 522 926 l 1
 627 926 l 1
 571 858 l 1
 400 858 l 1
 344 926 l 1
 449 926 l 1
 485 871 l 1x3e
572 800 m 1
 572 0 l 1
 399 0 l 1x7e
 399 32 l 1
 360 -2 311 -22 258 -22 c 0xbe
 132 -22 30 92 30 234 c 0
 30 375 132 490 258 490 c 0
 311 490 360 469 399 435 c 1
 399 800 l 1
 572 800 l 1
302 114 m 0xbe
 358 114 403 166 403 230 c 0
 403 295 358 347 302 347 c 0
 247 347 202 295 202 230 c 0
 202 166 247 114 302 114 c 0xbe
EndSplineSet
Validated: 1
EndChar

StartChar: dcroat
Encoding: 240 273 176
Width: 650
VWidth: 0
Flags: W
HStem: -22 136<245.235 350.731> 0 21G<399 572> 347 143<245.235 348.577> 560 115<324 399 572 645> 780 20G<399 572>
VStem: 30 172<158.028 300.123> 399 173<0 32 154.113 306.723 435 560 675 800>
LayerCount: 2
Fore
SplineSet
302 114 m 0xbe
 358 114 403 166 403 230 c 0
 403 295 358 347 302 347 c 0
 247 347 202 295 202 230 c 0
 202 166 247 114 302 114 c 0xbe
399 675 m 1
 399 800 l 1
 572 800 l 1
 572 675 l 1
 645 675 l 1
 645 560 l 1
 572 560 l 1
 572 0 l 1
 399 0 l 1x7e
 399 32 l 1
 360 -2 311 -22 258 -22 c 0
 132 -22 30 92 30 234 c 0
 30 375 132 490 258 490 c 0
 311 490 360 469 399 435 c 1
 399 560 l 1
 324 560 l 1
 324 675 l 1
 399 675 l 1
EndSplineSet
Validated: 1
EndChar

StartChar: ncaron
Encoding: 242 328 177
Width: 591
VWidth: 0
Flags: W
HStem: 0 21G<50 224 367 541> 349 153<280.606 415> 460 20G<50 224>
VStem: 50 174<0 327.625 432 480> 367 174<0 327.625>
LayerCount: 2
Fore
SplineSet
541 340 m 2xd8
 541 0 l 1
 367 0 l 1
 367 277 l 2
 367 316 335 349 296 349 c 0xd8
 256 349 224 316 224 277 c 2
 224 0 l 1
 50 0 l 1
 50 480 l 1
 224 480 l 1xb8
 224 432 l 1
 256 476 310 502 367 502 c 0
 463 502 541 430 541 340 c 2xd8
250 541 m 1
 147 720 l 1
 276 720 l 1
 321 606 l 1
 366 720 l 1
 495 720 l 1
 392 541 l 1
 250 541 l 1
EndSplineSet
Validated: 1
EndChar

StartChar: ocircumflex
Encoding: 244 244 178
Width: 601
VWidth: 0
Flags: W
HStem: -22 144<243.251 358.197> 358 144<243.251 358.197>
VStem: 30 166<168.82 311.18> 405 166<168.82 311.18>
LayerCount: 2
Fore
SplineSet
371 720 m 1
 475 541 l 1
 346 541 l 1
 301 655 l 1
 255 541 l 1
 126 541 l 1
 230 720 l 1
 371 720 l 1
301 358 m 0
 243 358 196 305 196 240 c 0
 196 175 243 122 301 122 c 0
 358 122 405 175 405 240 c 0
 405 305 358 358 301 358 c 0
301 -22 m 0
 151 -22 30 95 30 240 c 0
 30 385 151 502 301 502 c 0
 450 502 571 385 571 240 c 0
 571 95 450 -22 301 -22 c 0
EndSplineSet
Validated: 1
EndChar

StartChar: ohungarumlaut
Encoding: 245 337 179
Width: 601
VWidth: 0
Flags: W
HStem: -22 144<243.251 358.197> 358 144<243.251 358.197>
VStem: 30 166<168.82 311.18> 405 166<168.82 311.18>
LayerCount: 2
Fore
SplineSet
259 541 m 1
 163 541 l 1
 233 720 l 1
 362 720 l 1
 259 541 l 1
451 541 m 1
 355 541 l 1
 425 720 l 1
 555 720 l 1
 451 541 l 1
301 358 m 0
 243 358 196 305 196 240 c 0
 196 175 243 122 301 122 c 0
 358 122 405 175 405 240 c 0
 405 305 358 358 301 358 c 0
301 -22 m 0
 151 -22 30 95 30 240 c 0
 30 385 151 502 301 502 c 0
 450 502 571 385 571 240 c 0
 571 95 450 -22 301 -22 c 0
EndSplineSet
Validated: 1
EndChar

StartChar: odieresis
Encoding: 246 246 180
Width: 601
VWidth: 0
Flags: W
HStem: -22 144<243.251 358.197> 358 144<243.251 358.197> 541 188<112.994 231.828 369.172 488.413>
VStem: 30 166<168.82 311.18> 79 187<575.172 694.828> 335 188<575.172 694.828> 405 166<168.82 311.18>
LayerCount: 2
Fore
SplineSet
301 358 m 0xf2
 243 358 196 305 196 240 c 0
 196 175 243 122 301 122 c 0
 358 122 405 175 405 240 c 0
 405 305 358 358 301 358 c 0xf2
301 -22 m 0
 151 -22 30 95 30 240 c 0
 30 385 151 502 301 502 c 0
 450 502 571 385 571 240 c 0
 571 95 450 -22 301 -22 c 0
429 729 m 0
 480 729 523 687 523 635 c 0
 523 583 480 541 429 541 c 0
 377 541 335 583 335 635 c 0xe4
 335 687 377 729 429 729 c 0
172 729 m 0
 224 729 266 687 266 635 c 0
 266 583 224 541 172 541 c 0
 121 541 79 583 79 635 c 0xe8
 79 687 121 729 172 729 c 0
EndSplineSet
Validated: 1
EndChar

StartChar: divide
Encoding: 247 247 181
Width: 416
VWidth: 0
Flags: W
HStem: 122 192<146.943 269.057> 365 115<40 376> 531 192<146.943 269.057>
VStem: 112 192<156.943 279.057 565.943 688.057>
CounterMasks: 1 e0
LayerCount: 2
Fore
SplineSet
40 480 m 1
 376 480 l 1
 376 365 l 1
 40 365 l 1
 40 480 l 1
208 531 m 0
 155 531 112 574 112 627 c 0
 112 680 155 723 208 723 c 0
 261 723 304 680 304 627 c 0
 304 574 261 531 208 531 c 0
208 122 m 0
 155 122 112 165 112 218 c 0
 112 271 155 314 208 314 c 0
 261 314 304 271 304 218 c 0
 304 165 261 122 208 122 c 0
EndSplineSet
Validated: 1
EndChar

StartChar: rcaron
Encoding: 248 345 182
Width: 463
VWidth: 0
Flags: W
HStem: 0 21G<50 224> 334 161<274.627 378.922> 460 20G<50 224>
VStem: 50 174<0 313 428 480>
LayerCount: 2
Fore
SplineSet
224 480 m 1xb0
 224 428 l 1
 254 469 302 495 356 495 c 0
 393 495 429 477 458 443 c 1
 364 296 l 1
 345 321 321 334 296 334 c 0xd0
 256 334 224 302 224 262 c 2
 224 0 l 1
 50 0 l 1
 50 480 l 1
 224 480 l 1xb0
86 541 m 1
 -18 720 l 1
 112 720 l 1
 157 606 l 1
 202 720 l 1
 331 720 l 1
 227 541 l 1
 86 541 l 1
EndSplineSet
Validated: 1
EndChar

StartChar: uring
Encoding: 249 367 183
Width: 580
VWidth: 0
Flags: W
HStem: -22 147<239.707 340.437> 460 20G<50 216 364 530> 541 62<262.374 317.626> 724 61<262.652 317.348>
VStem: 50 166<146.892 480> 168 86<609.004 719.032> 326 86<609.004 719.032> 364 166<146.892 480>
LayerCount: 2
Fore
SplineSet
530 196 m 2xf9
 530 76 423 -22 290 -22 c 0
 158 -22 50 76 50 196 c 2
 50 480 l 1
 216 480 l 1
 216 199 l 2
 216 158 249 125 290 125 c 0
 331 125 364 158 364 199 c 2
 364 480 l 1
 530 480 l 1
 530 196 l 2xf9
290 724 m 0
 270 724 254 697 254 663 c 0
 254 630 270 603 290 603 c 0
 310 603 326 630 326 663 c 0xf6
 326 697 310 724 290 724 c 0
290 785 m 0
 357 785 412 731 412 663 c 0
 412 596 357 541 290 541 c 0
 223 541 168 596 168 663 c 0
 168 731 223 785 290 785 c 0
EndSplineSet
Validated: 1
EndChar

StartChar: uacute
Encoding: 250 250 184
Width: 580
VWidth: 0
Flags: W
HStem: -22 147<239.707 340.437> 460 20G<50 216 364 530>
VStem: 50 166<146.892 480> 364 166<146.892 480>
LayerCount: 2
Fore
SplineSet
530 196 m 2
 530 76 423 -22 290 -22 c 0
 158 -22 50 76 50 196 c 2
 50 480 l 1
 216 480 l 1
 216 199 l 2
 216 158 249 125 290 125 c 0
 331 125 364 158 364 199 c 2
 364 480 l 1
 530 480 l 1
 530 196 l 2
333 541 m 1
 237 541 l 1
 308 720 l 1
 437 720 l 1
 333 541 l 1
EndSplineSet
Validated: 1
EndChar

StartChar: uhungarumlaut
Encoding: 251 369 185
Width: 580
VWidth: 0
Flags: W
HStem: -22 147<239.707 340.437> 460 20G<50 216 364 530>
VStem: 50 166<146.892 480> 364 166<146.892 480>
LayerCount: 2
Fore
SplineSet
530 196 m 2
 530 76 423 -22 290 -22 c 0
 158 -22 50 76 50 196 c 2
 50 480 l 1
 216 480 l 1
 216 199 l 2
 216 158 249 125 290 125 c 0
 331 125 364 158 364 199 c 2
 364 480 l 1
 530 480 l 1
 530 196 l 2
140 541 m 1
 211 720 l 1
 340 720 l 1
 236 541 l 1
 140 541 l 1
428 541 m 1
 332 541 l 1
 403 720 l 1
 532 720 l 1
 428 541 l 1
EndSplineSet
Validated: 1
EndChar

StartChar: udieresis
Encoding: 252 252 186
Width: 580
VWidth: 0
Flags: W
HStem: -22 147<239.707 340.437> 460 20G<50 216 364 530> 541 188<102.172 221.828 358.172 477.828>
VStem: 50 166<146.892 480> 68 188<575.172 694.828> 324 188<575.172 694.828> 364 166<146.892 480>
LayerCount: 2
Fore
SplineSet
418 729 m 0xe4
 470 729 512 687 512 635 c 0
 512 583 470 541 418 541 c 0
 366 541 324 583 324 635 c 0
 324 687 366 729 418 729 c 0xe4
162 729 m 0
 214 729 256 687 256 635 c 0
 256 583 214 541 162 541 c 0
 110 541 68 583 68 635 c 0xe8
 68 687 110 729 162 729 c 0
530 196 m 2xf2
 530 76 423 -22 290 -22 c 0
 158 -22 50 76 50 196 c 2
 50 480 l 1
 216 480 l 1
 216 199 l 2
 216 158 249 125 290 125 c 0
 331 125 364 158 364 199 c 2
 364 480 l 1
 530 480 l 1
 530 196 l 2xf2
EndSplineSet
Validated: 1
EndChar

StartChar: yacute
Encoding: 253 253 187
Width: 556
VWidth: 0
Flags: W
HStem: 460 20G<5 200.514 363.361 551>
LayerCount: 2
Fore
SplineSet
338 541 m 1
 242 541 l 1
 313 720 l 1
 442 720 l 1
 338 541 l 1
5 480 m 1
 196 480 l 1
 261 192 l 1
 371 480 l 1
 551 480 l 1
 290 -209 l 1
 109 -209 l 1
 178 -28 l 1
 5 480 l 1
EndSplineSet
Validated: 1
EndChar

StartChar: uni0163
Encoding: 254 355 188
Width: 292
VWidth: 0
Flags: W
HStem: -180 62.6025<64.6474 156.5> 365 115<5 59 233 287>
VStem: 59 174<0 365 480 681> 146 102<-108.971 -33.6385>
LayerCount: 2
Fore
SplineSet
233 681 m 1xe0
 233 480 l 1
 287 480 l 1
 287 365 l 1
 233 365 l 1
 233 0 l 1xe0
 195 0 l 1
 226 -28 248 -55 248 -104 c 0
 248 -153 170 -180 143 -180 c 0
 116 -180 83 -177 64 -171 c 1
 64 -114 l 1
 72.396484375 -116.159179688 81.482421875 -117.397460938 90.4453125 -117.397460938 c 0
 118.844726562 -117.397460938 146 -104.96484375 146 -70 c 0xd0
 146 -31 107 0 59 0 c 1
 59 365 l 1
 5 365 l 1
 5 480 l 1
 59 480 l 1
 59 681 l 1
 233 681 l 1xe0
EndSplineSet
Validated: 1
EndChar

StartChar: dotaccent
Encoding: 255 729 189
Width: 154
VWidth: 0
Flags: W
HStem: 825 114<32.3055 122.003>
VStem: 20 114<837.848 926.152>
LayerCount: 2
Fore
SplineSet
77 939 m 0
 109 939 134 914 134 882 c 0
 134 850 109 825 77 825 c 0
 46 825 20 850 20 882 c 0
 20 914 46 939 77 939 c 0
EndSplineSet
Validated: 1
EndChar
